<svg width="631" height="332" viewBox="0 0 631 332" fill="none" xmlns="http://www.w3.org/2000/svg">
<path d="M248.427 234.675C211.384 271.775 151.326 271.775 114.282 234.675C77.2393 197.575 77.2393 137.425 114.282 100.325C151.326 63.225 211.384 63.225 248.427 100.325L325.5 177.5L382.573 234.675C419.616 271.775 479.675 271.775 516.718 234.675C553.761 197.575 553.761 137.425 516.718 100.325C479.675 63.2251 419.616 63.2251 382.573 100.325L248.427 234.675Z" stroke="#1D3E7A" stroke-opacity="0.09"/>
<g filter="url(#filter0_dddddd_333_41726)">
<path d="M58.5 166.5C58.5 151.036 71.036 138.5 86.5 138.5C101.964 138.5 114.5 151.036 114.5 166.5C114.5 181.964 101.964 194.5 86.5 194.5C71.036 194.5 58.5 181.964 58.5 166.5Z" fill="white" fill-opacity="0.72" shape-rendering="crispEdges"/>
<path d="M59 166.5C59 151.312 71.3122 139 86.5 139C101.688 139 114 151.312 114 166.5C114 181.688 101.688 194 86.5 194C71.3122 194 59 181.688 59 166.5Z" stroke="#242A30" stroke-opacity="0.02" shape-rendering="crispEdges"/>
<g clip-path="url(#clip0_333_41726)">
<path d="M96.234 167.922C96.2292 168.404 95.8332 168.792 95.3496 168.787C94.8744 168.782 94.4904 168.398 94.4844 167.922V160.058C94.4892 159.576 94.8852 159.188 95.3688 159.193C95.844 159.198 96.228 159.582 96.234 160.058V167.922ZM95.9292 173.395C95.7936 173.51 92.5548 176.228 86.616 176.228C80.6772 176.228 77.4384 173.51 77.3028 173.394C76.9368 173.079 76.8936 172.527 77.208 172.161C77.5212 171.795 78.072 171.752 78.4392 172.065C78.4908 172.108 81.3828 174.48 86.616 174.48C91.8492 174.48 94.7628 172.092 94.7904 172.068C95.1564 171.753 95.7096 171.795 96.0228 172.162C96.3372 172.53 96.2952 173.082 95.928 173.395H95.9292ZM76.998 160.058C77.0028 159.576 77.3988 159.188 77.8824 159.193C78.3576 159.198 78.7416 159.582 78.7476 160.058V167.922C78.7428 168.404 78.3468 168.792 77.8632 168.787C77.388 168.782 77.004 168.398 76.998 167.922V160.058ZM81.3696 158.31C81.3768 157.827 81.774 157.441 82.2576 157.449C82.7304 157.456 83.1108 157.838 83.118 158.31V169.99C83.1108 170.473 82.7136 170.859 82.23 170.851C81.7572 170.844 81.3768 170.462 81.3696 169.99V158.31ZM85.7412 157.867C85.7412 157.384 86.1324 156.992 86.6148 156.992C87.0972 156.992 87.4896 157.383 87.4896 157.866V170.545C87.4848 171.027 87.0888 171.415 86.6052 171.41C86.13 171.405 85.746 171.021 85.74 170.545V157.867H85.7412ZM90.114 158.31C90.1212 157.827 90.5184 157.441 91.002 157.449C91.4748 157.456 91.8552 157.838 91.8624 158.31V169.99C91.8552 170.473 91.458 170.859 90.9744 170.851C90.5016 170.844 90.1212 170.462 90.114 169.99V158.31ZM96.4524 153.5H76.7784C74.9676 153.5 73.5 154.968 73.5 156.778V176.452C73.5 178.263 74.9676 179.731 76.7784 179.731H96.4524C98.2632 179.731 99.7308 178.263 99.7308 176.452V156.778C99.7308 154.968 98.2632 153.5 96.4524 153.5Z" fill="#D6D6D6"/>
</g>
</g>
<g filter="url(#filter1_dddddd_333_41726)">
<path d="M516.5 166.5C516.5 151.036 529.036 138.5 544.5 138.5C559.964 138.5 572.5 151.036 572.5 166.5C572.5 181.964 559.964 194.5 544.5 194.5C529.036 194.5 516.5 181.964 516.5 166.5Z" fill="white" fill-opacity="0.72" shape-rendering="crispEdges"/>
<path d="M517 166.5C517 151.312 529.312 139 544.5 139C559.688 139 572 151.312 572 166.5C572 181.688 559.688 194 544.5 194C529.312 194 517 181.688 517 166.5Z" stroke="#242A30" stroke-opacity="0.02" shape-rendering="crispEdges"/>
<g clip-path="url(#clip1_333_41726)">
<path d="M544.5 182.5C553.337 182.5 560.5 175.337 560.5 166.5C560.5 157.663 553.337 150.5 544.5 150.5C535.663 150.5 528.5 157.663 528.5 166.5C528.5 175.337 535.663 182.5 544.5 182.5Z" fill="url(#paint0_linear_333_41726)"/>
<path fill-rule="evenodd" clip-rule="evenodd" d="M535.743 166.331C540.408 164.299 543.518 162.959 545.074 162.312C549.518 160.464 550.441 160.143 551.043 160.132C551.175 160.13 551.471 160.163 551.663 160.318C551.825 160.449 551.869 160.627 551.89 160.751C551.912 160.876 551.938 161.16 551.917 161.381C551.676 163.911 550.634 170.051 550.104 172.884C549.88 174.083 549.438 174.485 549.011 174.525C548.082 174.61 547.376 173.911 546.476 173.321C545.068 172.398 544.273 171.823 542.906 170.922C541.326 169.881 542.35 169.309 543.25 168.374C543.486 168.129 547.58 164.406 547.659 164.068C547.669 164.026 547.678 163.868 547.584 163.785C547.491 163.702 547.353 163.73 547.253 163.753C547.112 163.785 544.862 165.272 540.504 168.214C539.866 168.652 539.287 168.866 538.769 168.855C538.198 168.842 537.099 168.532 536.282 168.266C535.28 167.94 534.484 167.768 534.553 167.215C534.589 166.927 534.986 166.632 535.743 166.331Z" fill="white"/>
</g>
</g>
<g filter="url(#filter2_dddddd_333_41726)">
<path d="M184.5 81.5C184.5 66.036 197.036 53.5 212.5 53.5C227.964 53.5 240.5 66.036 240.5 81.5C240.5 96.964 227.964 109.5 212.5 109.5C197.036 109.5 184.5 96.964 184.5 81.5Z" fill="white" fill-opacity="0.72" shape-rendering="crispEdges"/>
<path d="M185 81.5C185 66.3122 197.312 54 212.5 54C227.688 54 240 66.3122 240 81.5C240 96.6878 227.688 109 212.5 109C197.312 109 185 96.6878 185 81.5Z" stroke="#242A30" stroke-opacity="0.02" shape-rendering="crispEdges"/>
<g clip-path="url(#clip2_333_41726)">
<path d="M220.461 72.6147V81.2583L212.534 87.198L204.657 81.2583C204.659 81.2215 204.591 81.1439 204.576 81.0949L204.657 72.6147C207.302 74.5677 209.937 76.537 212.53 78.561C215.173 76.5786 217.808 74.5832 220.461 72.6147Z" fill="#7A7A7A"/>
<path d="M204.576 81.0956C204.59 81.1447 204.66 81.2223 204.657 81.259C204.656 81.2827 204.571 81.3849 204.571 81.5352C204.575 85.2213 204.58 88.909 204.576 92.5934H199.698C199.091 92.5934 198.102 91.639 198.052 90.9959C198.066 86.0662 198.01 81.1324 198.045 76.2035C200.225 77.8239 202.35 79.5578 204.576 81.0964V81.0956Z" fill="#787878"/>
<path d="M227.072 76.2844C227.106 81.1864 227.053 86.0924 227.065 90.996C227.016 91.639 226.027 92.5934 225.419 92.5934H220.541V81.2591C222.675 79.539 224.879 77.9244 227.072 76.2852V76.2844Z" fill="#8C8C8C"/>
<path d="M227.073 76.2844C224.879 77.9235 222.676 79.539 220.542 81.2582H220.461V72.6147C222.094 71.4029 223.462 69.6501 225.675 70.9698C227.551 72.0884 227.059 74.378 227.073 76.2836V76.2844Z" fill="#BDBDBD"/>
<path d="M204.657 72.6148L204.576 81.0949C202.351 79.5571 200.225 77.8231 198.045 76.2028C198.058 74.3299 197.584 72.0738 199.44 70.9683C201.628 69.6649 203.039 71.421 204.657 72.6148Z" fill="#626262"/>
</g>
</g>
<g filter="url(#filter3_dddddd_333_41726)">
<path d="M390.5 81.5C390.5 66.036 403.036 53.5 418.5 53.5C433.964 53.5 446.5 66.036 446.5 81.5C446.5 96.964 433.964 109.5 418.5 109.5C403.036 109.5 390.5 96.964 390.5 81.5Z" fill="white" fill-opacity="0.72" shape-rendering="crispEdges"/>
<path d="M391 81.5C391 66.3122 403.312 54 418.5 54C433.688 54 446 66.3122 446 81.5C446 96.6878 433.688 109 418.5 109C403.312 109 391 96.6878 391 81.5Z" stroke="#242A30" stroke-opacity="0.02" shape-rendering="crispEdges"/>
<g filter="url(#filter4_d_333_41726)">
<rect x="405.5" y="68.5" width="26" height="26" rx="3.90977" fill="#E4E4E4" shape-rendering="crispEdges"/>
<rect x="405.577" y="68.577" width="25.8461" height="25.8461" rx="3.8328" stroke="#242A30" stroke-opacity="0.04" stroke-width="0.153947" shape-rendering="crispEdges"/>
<g clip-path="url(#clip3_333_41726)">
<path d="M413.061 89.4762C413.013 89.4253 412.98 89.3229 412.998 89.253L413.824 86.1601C412.215 85.3285 410.77 84.0145 410.137 82.2803C409.125 79.5119 410.391 76.834 412.679 75.2137C415.989 72.8687 420.994 72.8627 424.307 75.2053C427.004 77.1121 428.162 80.4148 426.318 83.3778C424.424 86.4216 420.344 87.6077 416.924 87.1291L413.369 89.5209C413.278 89.5696 413.133 89.5514 413.061 89.4762ZM417.542 81.734C417.648 81.969 417.688 82.5027 417.98 82.5785C418.344 82.6731 418.61 82.399 418.474 82.0433L417.249 78.7157C416.98 78.1976 416.343 78.2224 416.086 78.7435C415.729 79.8255 415.196 80.9056 414.859 81.9872C414.808 82.1503 414.766 82.2706 414.871 82.427C414.982 82.5941 415.271 82.6476 415.44 82.5484C415.657 82.422 415.694 81.9404 415.816 81.7302L417.543 81.734H417.542ZM419.781 81.7928V78.6654C419.781 78.5722 419.648 78.414 419.555 78.3787C419.189 78.2401 418.964 78.4483 418.939 78.8081C418.865 79.8646 418.997 81.0052 418.939 82.0707C418.956 82.3234 419.036 82.4939 419.3 82.5499L421.033 82.5427C421.314 82.4752 421.444 82.1227 421.236 81.9059C421.201 81.8684 421.068 81.793 421.021 81.793H419.781V81.7928ZM422.529 80.0702V78.6655C422.529 78.6577 422.478 78.5397 422.468 78.5213C422.291 78.2141 421.725 78.3168 421.693 78.6914L421.687 82.1936C421.736 82.7598 422.476 82.6982 422.529 82.2339C422.553 82.0165 422.483 81.1558 422.548 81.0433C422.559 81.0247 422.79 80.7927 422.808 80.7896C422.838 80.7844 422.859 80.822 422.877 80.8399C423.264 81.2421 423.61 81.9092 423.985 82.3563C424.077 82.4662 424.17 82.5791 424.322 82.5936C424.758 82.6356 424.947 82.2632 424.687 81.9215L423.43 80.265C423.743 79.8574 424.16 79.5407 424.498 79.1581C424.654 78.9817 424.815 78.8212 424.665 78.5794C424.539 78.3746 424.227 78.3521 424.048 78.5032C423.534 79.0179 423.049 79.5629 422.529 80.0702H422.529ZM412.265 79.1268H413.259V82.1926C413.259 82.2564 413.319 82.4061 413.362 82.4592C413.502 82.6338 413.845 82.6456 413.994 82.4766C414.017 82.4508 414.1 82.2981 414.1 82.2746V79.1267H415.095C415.184 79.1267 415.307 78.9767 415.331 78.8918C415.414 78.6015 415.229 78.3687 414.931 78.3672C414.12 78.411 413.253 78.3116 412.448 78.3671C412.151 78.3874 411.987 78.5341 412.031 78.8482C412.045 78.9523 412.162 79.1061 412.265 79.1268H412.265Z" fill="#272727"/>
<path d="M422.528 80.0703C423.049 79.5631 423.533 79.0179 424.048 78.5033C424.227 78.3524 424.538 78.3749 424.665 78.5796C424.815 78.8212 424.654 78.9819 424.498 79.1583C424.159 79.5409 423.742 79.8575 423.43 80.2652L424.686 81.9217C424.947 82.2635 424.758 82.6357 424.322 82.5937C424.17 82.5791 424.077 82.4663 423.985 82.3564C423.61 81.9093 423.263 81.2422 422.876 80.8401C422.859 80.822 422.837 80.7845 422.808 80.7897C422.79 80.7929 422.558 81.0247 422.548 81.0434C422.483 81.1559 422.553 82.0166 422.528 82.2341C422.476 82.6984 421.735 82.76 421.687 82.1937L421.693 78.6915C421.725 78.317 422.29 78.2142 422.467 78.5214C422.478 78.5399 422.528 78.6578 422.528 78.6656V80.0703H422.528Z" fill="#DBDBDB"/>
<path d="M417.542 81.7341L415.816 81.7303C415.693 81.9403 415.657 82.4219 415.44 82.5484C415.27 82.6477 414.982 82.5942 414.87 82.4271C414.766 82.2707 414.808 82.1504 414.858 81.9873C415.196 80.9057 415.729 79.8256 416.085 78.7436C416.343 78.2225 416.98 78.1977 417.249 78.7158L418.474 82.0434C418.609 82.399 418.343 82.6731 417.979 82.5786C417.688 82.5027 417.648 81.9691 417.542 81.7341H417.542ZM417.299 80.9931L416.683 79.0859L416.048 80.9931H417.299Z" fill="#DBDBDB"/>
<path d="M412.263 79.1269C412.161 79.1062 412.044 78.9524 412.029 78.8483C411.986 78.5344 412.15 78.3877 412.447 78.3672C413.252 78.3117 414.119 78.4111 414.93 78.3673C415.227 78.3689 415.413 78.6017 415.33 78.8919C415.306 78.9768 415.183 79.1268 415.093 79.1268H414.099V82.2747C414.099 82.2982 414.016 82.4509 413.993 82.4767C413.844 82.6457 413.501 82.6339 413.361 82.4593C413.318 82.4062 413.258 82.2565 413.258 82.1927V79.1269H412.263H412.263Z" fill="#DBDBDB"/>
<path d="M419.78 81.7929H421.02C421.067 81.7929 421.2 81.8684 421.236 81.9058C421.443 82.1227 421.313 82.4752 421.032 82.5425L419.299 82.5497C419.035 82.4938 418.955 82.3233 418.938 82.0705C418.996 81.0051 418.864 79.8645 418.938 78.8079C418.963 78.4482 419.188 78.24 419.554 78.3785C419.647 78.414 419.78 78.5722 419.78 78.6652V81.7926V81.7929Z" fill="#DBDBDB"/>
<path d="M417.299 80.9931H416.048L416.683 79.0859L417.299 80.9931Z" fill="#272727"/>
</g>
</g>
</g>
<g filter="url(#filter5_dddddd_333_41726)">
<path d="M184.5 250.5C184.5 235.036 197.036 222.5 212.5 222.5C227.964 222.5 240.5 235.036 240.5 250.5C240.5 265.964 227.964 278.5 212.5 278.5C197.036 278.5 184.5 265.964 184.5 250.5Z" fill="white" fill-opacity="0.72" shape-rendering="crispEdges"/>
<path d="M185 250.5C185 235.312 197.312 223 212.5 223C227.688 223 240 235.312 240 250.5C240 265.688 227.688 278 212.5 278C197.312 278 185 265.688 185 250.5Z" stroke="#242A30" stroke-opacity="0.02" shape-rendering="crispEdges"/>
<g clip-path="url(#clip4_333_41726)">
<path d="M208.391 250.98C210.168 250.832 211.674 252.306 211.729 254.057C211.583 256.598 211.914 259.337 211.729 261.855C211.429 265.929 205.821 265.743 205.528 262.046C205.32 259.418 205.69 256.521 205.528 253.865C205.648 252.326 206.85 251.11 208.391 250.98Z" fill="#6B6B6B"/>
<path d="M215.992 235.521C217.766 235.321 219.273 236.592 219.458 238.344C219.298 241.002 219.663 243.894 219.458 246.524C219.162 250.32 213.537 250.429 213.257 246.333C213.403 243.791 213.072 241.052 213.257 238.535C213.37 237.003 214.422 235.698 215.992 235.521H215.992Z" fill="#919191"/>
<path d="M216.183 250.98C218.773 251.089 221.585 250.77 224.151 250.959C228.035 251.245 228.213 256.53 224.46 257.149C221.766 257.006 218.827 257.367 216.162 257.159C212.391 256.865 212.296 251.344 216.183 250.98Z" fill="#AFAFAF"/>
<path d="M200.532 243.25C203.128 242.958 206.178 243.433 208.821 243.23C212.391 243.592 212.724 248.489 209.249 249.348C206.553 249.352 203.578 249.614 200.895 249.431C196.806 249.152 196.903 243.659 200.532 243.25Z" fill="#A5A5A5"/>
<path d="M203.997 250.961V254.379C203.997 254.97 203.387 255.996 202.941 256.389C200.317 258.701 196.454 255.513 198.221 252.5C198.632 251.798 199.749 250.962 200.579 250.962H203.997V250.961Z" fill="#6B6B6B"/>
<path d="M220.989 249.428V246.01C220.989 245.227 221.767 244.146 222.412 243.728C225.036 242.027 228.221 244.854 226.877 247.682C226.474 248.532 225.3 249.427 224.342 249.427H220.988L220.989 249.428Z" fill="#919191"/>
<path d="M213.258 258.69H216.612C217.632 258.69 218.859 259.674 219.23 260.607C220.356 263.448 217.219 266.043 214.644 264.363C213.977 263.928 213.258 262.852 213.258 262.043V258.69Z" fill="#AFAFAF"/>
<path d="M208.371 241.699C205.184 241.376 204.442 237.006 207.402 235.747C209.284 234.946 211.725 236.328 211.725 238.409V241.603C211.725 241.62 211.65 241.666 211.629 241.699C210.584 241.622 209.397 241.803 208.371 241.699Z" fill="#A5A5A5"/>
</g>
</g>
<g filter="url(#filter6_dddddd_333_41726)">
<path d="M390.5 250.5C390.5 235.036 403.036 222.5 418.5 222.5C433.964 222.5 446.5 235.036 446.5 250.5C446.5 265.964 433.964 278.5 418.5 278.5C403.036 278.5 390.5 265.964 390.5 250.5Z" fill="white" fill-opacity="0.72" shape-rendering="crispEdges"/>
<path d="M391 250.5C391 235.312 403.312 223 418.5 223C433.688 223 446 235.312 446 250.5C446 265.688 433.688 278 418.5 278C403.312 278 391 265.688 391 250.5Z" stroke="#242A30" stroke-opacity="0.02" shape-rendering="crispEdges"/>
<g filter="url(#filter7_d_333_41726)">
<rect x="405.5" y="237.5" width="26" height="26" rx="3.90977" fill="url(#paint1_linear_333_41726)" shape-rendering="crispEdges"/>
<rect x="405.577" y="237.577" width="25.8461" height="25.8461" rx="3.8328" stroke="#242A30" stroke-opacity="0.04" stroke-width="0.153947" shape-rendering="crispEdges"/>
<path d="M418.5 242.192C416.102 242.192 413.802 243.006 412.107 244.455C410.411 245.905 409.458 247.87 409.458 249.92C409.461 251.253 409.866 252.563 410.636 253.723C411.405 254.882 412.513 255.852 413.851 256.537C413.494 257.356 412.96 258.124 412.27 258.808C413.608 258.567 414.865 258.06 415.942 257.328C416.772 257.539 417.634 257.647 418.5 257.648C420.898 257.648 423.197 256.834 424.893 255.385C426.589 253.935 427.541 251.97 427.541 249.92C427.541 247.87 426.589 245.905 424.893 244.455C423.197 243.006 420.898 242.192 418.5 242.192Z" fill="white"/>
</g>
</g>
<g filter="url(#filter8_dddddd_333_41726)">
<path d="M262.5 172.5C262.5 143.229 286.229 119.5 315.5 119.5C344.771 119.5 368.5 143.229 368.5 172.5C368.5 201.771 344.771 225.5 315.5 225.5C286.229 225.5 262.5 201.771 262.5 172.5Z" fill="#664BF4"/>
<path d="M263 172.5C263 143.505 286.505 120 315.5 120C344.495 120 368 143.505 368 172.5C368 201.495 344.495 225 315.5 225C286.505 225 263 201.495 263 172.5Z" stroke="#242A30" stroke-opacity="0.02"/>
<g filter="url(#filter9_di_333_41726)">
<path fill-rule="evenodd" clip-rule="evenodd" d="M320.558 144.667C320.558 143.194 321.721 142 323.155 142H332.404C333.838 142 335 143.194 335 144.667V154.167C335 155.639 333.838 156.833 332.404 156.833H323.155C323.069 156.833 322.983 156.829 322.899 156.821L322.911 156.833C322.181 156.917 320.721 157.517 320.721 159.25L320.708 159.238C320.717 159.324 320.721 159.412 320.721 159.5V169C320.721 169.18 320.703 169.356 320.67 169.525C321.018 170.372 321.868 171.5 323.155 171.5H332.404C333.838 171.5 335 172.694 335 174.167V183.667C335 185.139 333.838 186.333 332.404 186.333H323.155C322.932 186.333 322.692 186.333 322.509 186.25C321.747 186.474 320.721 187.13 320.721 188.583L320.708 188.571C320.717 188.658 320.721 188.745 320.721 188.833V198.333C320.721 199.806 319.558 201 318.125 201H294.596C293.162 201 292 199.806 292 198.333V188.833C292 187.361 293.162 186.167 294.596 186.167H318.125C318.152 186.167 318.18 186.167 318.207 186.168L318.206 186.167C318.99 186 320.558 185.267 320.558 183.667V174.167C320.558 174.055 320.565 173.945 320.578 173.838C320.379 173.051 319.738 171.813 318.462 171.644C318.352 171.659 318.239 171.667 318.125 171.667H308.875C307.442 171.667 306.279 170.473 306.279 169V159.5C306.279 158.027 307.442 156.833 308.875 156.833H318.125C318.152 156.833 318.18 156.834 318.207 156.835L318.206 156.833C318.99 156.667 320.558 155.933 320.558 154.333L320.564 154.339C320.56 154.282 320.558 154.225 320.558 154.167V144.667Z" fill="white"/>
</g>
</g>
<defs>
<filter id="filter0_dddddd_333_41726" x="52.1604" y="133.217" width="68.6792" height="80.3019" filterUnits="userSpaceOnUse" color-interpolation-filters="sRGB">
<feFlood flood-opacity="0" result="BackgroundImageFix"/>
<feColorMatrix in="SourceAlpha" type="matrix" values="0 0 0 0 0 0 0 0 0 0 0 0 0 0 0 0 0 0 127 0" result="hardAlpha"/>
<feMorphology radius="6.33962" operator="erode" in="SourceAlpha" result="effect1_dropShadow_333_41726"/>
<feOffset dy="12.6792"/>
<feGaussianBlur stdDeviation="6.33962"/>
<feComposite in2="hardAlpha" operator="out"/>
<feColorMatrix type="matrix" values="0 0 0 0 0.054902 0 0 0 0 0.247059 0 0 0 0 0.494118 0 0 0 0.04 0"/>
<feBlend mode="normal" in2="BackgroundImageFix" result="effect1_dropShadow_333_41726"/>
<feColorMatrix in="SourceAlpha" type="matrix" values="0 0 0 0 0 0 0 0 0 0 0 0 0 0 0 0 0 0 127 0" result="hardAlpha"/>
<feMorphology radius="3.16981" operator="erode" in="SourceAlpha" result="effect2_dropShadow_333_41726"/>
<feOffset dy="6.33962"/>
<feGaussianBlur stdDeviation="3.16981"/>
<feComposite in2="hardAlpha" operator="out"/>
<feColorMatrix type="matrix" values="0 0 0 0 0.054902 0 0 0 0 0.247059 0 0 0 0 0.494118 0 0 0 0.04 0"/>
<feBlend mode="normal" in2="effect1_dropShadow_333_41726" result="effect2_dropShadow_333_41726"/>
<feColorMatrix in="SourceAlpha" type="matrix" values="0 0 0 0 0 0 0 0 0 0 0 0 0 0 0 0 0 0 127 0" result="hardAlpha"/>
<feMorphology radius="1.58491" operator="erode" in="SourceAlpha" result="effect3_dropShadow_333_41726"/>
<feOffset dy="3.16981"/>
<feGaussianBlur stdDeviation="1.58491"/>
<feComposite in2="hardAlpha" operator="out"/>
<feColorMatrix type="matrix" values="0 0 0 0 0.164706 0 0 0 0 0.2 0 0 0 0 0.27451 0 0 0 0.04 0"/>
<feBlend mode="normal" in2="effect2_dropShadow_333_41726" result="effect3_dropShadow_333_41726"/>
<feColorMatrix in="SourceAlpha" type="matrix" values="0 0 0 0 0 0 0 0 0 0 0 0 0 0 0 0 0 0 127 0" result="hardAlpha"/>
<feMorphology radius="0.792453" operator="erode" in="SourceAlpha" result="effect4_dropShadow_333_41726"/>
<feOffset dy="1.58491"/>
<feGaussianBlur stdDeviation="0.792453"/>
<feComposite in2="hardAlpha" operator="out"/>
<feColorMatrix type="matrix" values="0 0 0 0 0.164706 0 0 0 0 0.2 0 0 0 0 0.27451 0 0 0 0.04 0"/>
<feBlend mode="normal" in2="effect3_dropShadow_333_41726" result="effect4_dropShadow_333_41726"/>
<feColorMatrix in="SourceAlpha" type="matrix" values="0 0 0 0 0 0 0 0 0 0 0 0 0 0 0 0 0 0 127 0" result="hardAlpha"/>
<feMorphology radius="0.264151" operator="erode" in="SourceAlpha" result="effect5_dropShadow_333_41726"/>
<feOffset dy="0.528302"/>
<feGaussianBlur stdDeviation="0.264151"/>
<feComposite in2="hardAlpha" operator="out"/>
<feColorMatrix type="matrix" values="0 0 0 0 0.164706 0 0 0 0 0.2 0 0 0 0 0.270588 0 0 0 0.04 0"/>
<feBlend mode="normal" in2="effect4_dropShadow_333_41726" result="effect5_dropShadow_333_41726"/>
<feColorMatrix in="SourceAlpha" type="matrix" values="0 0 0 0 0 0 0 0 0 0 0 0 0 0 0 0 0 0 127 0" result="hardAlpha"/>
<feMorphology radius="0.528302" operator="dilate" in="SourceAlpha" result="effect6_dropShadow_333_41726"/>
<feOffset/>
<feComposite in2="hardAlpha" operator="out"/>
<feColorMatrix type="matrix" values="0 0 0 0 0.054902 0 0 0 0 0.247059 0 0 0 0 0.494118 0 0 0 0.04 0"/>
<feBlend mode="normal" in2="effect5_dropShadow_333_41726" result="effect6_dropShadow_333_41726"/>
<feBlend mode="normal" in="SourceGraphic" in2="effect6_dropShadow_333_41726" result="shape"/>
</filter>
<filter id="filter1_dddddd_333_41726" x="510.16" y="133.217" width="68.6792" height="80.3019" filterUnits="userSpaceOnUse" color-interpolation-filters="sRGB">
<feFlood flood-opacity="0" result="BackgroundImageFix"/>
<feColorMatrix in="SourceAlpha" type="matrix" values="0 0 0 0 0 0 0 0 0 0 0 0 0 0 0 0 0 0 127 0" result="hardAlpha"/>
<feMorphology radius="6.33962" operator="erode" in="SourceAlpha" result="effect1_dropShadow_333_41726"/>
<feOffset dy="12.6792"/>
<feGaussianBlur stdDeviation="6.33962"/>
<feComposite in2="hardAlpha" operator="out"/>
<feColorMatrix type="matrix" values="0 0 0 0 0.054902 0 0 0 0 0.247059 0 0 0 0 0.494118 0 0 0 0.04 0"/>
<feBlend mode="normal" in2="BackgroundImageFix" result="effect1_dropShadow_333_41726"/>
<feColorMatrix in="SourceAlpha" type="matrix" values="0 0 0 0 0 0 0 0 0 0 0 0 0 0 0 0 0 0 127 0" result="hardAlpha"/>
<feMorphology radius="3.16981" operator="erode" in="SourceAlpha" result="effect2_dropShadow_333_41726"/>
<feOffset dy="6.33962"/>
<feGaussianBlur stdDeviation="3.16981"/>
<feComposite in2="hardAlpha" operator="out"/>
<feColorMatrix type="matrix" values="0 0 0 0 0.054902 0 0 0 0 0.247059 0 0 0 0 0.494118 0 0 0 0.04 0"/>
<feBlend mode="normal" in2="effect1_dropShadow_333_41726" result="effect2_dropShadow_333_41726"/>
<feColorMatrix in="SourceAlpha" type="matrix" values="0 0 0 0 0 0 0 0 0 0 0 0 0 0 0 0 0 0 127 0" result="hardAlpha"/>
<feMorphology radius="1.58491" operator="erode" in="SourceAlpha" result="effect3_dropShadow_333_41726"/>
<feOffset dy="3.16981"/>
<feGaussianBlur stdDeviation="1.58491"/>
<feComposite in2="hardAlpha" operator="out"/>
<feColorMatrix type="matrix" values="0 0 0 0 0.164706 0 0 0 0 0.2 0 0 0 0 0.27451 0 0 0 0.04 0"/>
<feBlend mode="normal" in2="effect2_dropShadow_333_41726" result="effect3_dropShadow_333_41726"/>
<feColorMatrix in="SourceAlpha" type="matrix" values="0 0 0 0 0 0 0 0 0 0 0 0 0 0 0 0 0 0 127 0" result="hardAlpha"/>
<feMorphology radius="0.792453" operator="erode" in="SourceAlpha" result="effect4_dropShadow_333_41726"/>
<feOffset dy="1.58491"/>
<feGaussianBlur stdDeviation="0.792453"/>
<feComposite in2="hardAlpha" operator="out"/>
<feColorMatrix type="matrix" values="0 0 0 0 0.164706 0 0 0 0 0.2 0 0 0 0 0.27451 0 0 0 0.04 0"/>
<feBlend mode="normal" in2="effect3_dropShadow_333_41726" result="effect4_dropShadow_333_41726"/>
<feColorMatrix in="SourceAlpha" type="matrix" values="0 0 0 0 0 0 0 0 0 0 0 0 0 0 0 0 0 0 127 0" result="hardAlpha"/>
<feMorphology radius="0.264151" operator="erode" in="SourceAlpha" result="effect5_dropShadow_333_41726"/>
<feOffset dy="0.528302"/>
<feGaussianBlur stdDeviation="0.264151"/>
<feComposite in2="hardAlpha" operator="out"/>
<feColorMatrix type="matrix" values="0 0 0 0 0.164706 0 0 0 0 0.2 0 0 0 0 0.270588 0 0 0 0.04 0"/>
<feBlend mode="normal" in2="effect4_dropShadow_333_41726" result="effect5_dropShadow_333_41726"/>
<feColorMatrix in="SourceAlpha" type="matrix" values="0 0 0 0 0 0 0 0 0 0 0 0 0 0 0 0 0 0 127 0" result="hardAlpha"/>
<feMorphology radius="0.528302" operator="dilate" in="SourceAlpha" result="effect6_dropShadow_333_41726"/>
<feOffset/>
<feComposite in2="hardAlpha" operator="out"/>
<feColorMatrix type="matrix" values="0 0 0 0 0.054902 0 0 0 0 0.247059 0 0 0 0 0.494118 0 0 0 0.04 0"/>
<feBlend mode="normal" in2="effect5_dropShadow_333_41726" result="effect6_dropShadow_333_41726"/>
<feBlend mode="normal" in="SourceGraphic" in2="effect6_dropShadow_333_41726" result="shape"/>
</filter>
<filter id="filter2_dddddd_333_41726" x="178.16" y="48.217" width="68.6792" height="80.3019" filterUnits="userSpaceOnUse" color-interpolation-filters="sRGB">
<feFlood flood-opacity="0" result="BackgroundImageFix"/>
<feColorMatrix in="SourceAlpha" type="matrix" values="0 0 0 0 0 0 0 0 0 0 0 0 0 0 0 0 0 0 127 0" result="hardAlpha"/>
<feMorphology radius="6.33962" operator="erode" in="SourceAlpha" result="effect1_dropShadow_333_41726"/>
<feOffset dy="12.6792"/>
<feGaussianBlur stdDeviation="6.33962"/>
<feComposite in2="hardAlpha" operator="out"/>
<feColorMatrix type="matrix" values="0 0 0 0 0.054902 0 0 0 0 0.247059 0 0 0 0 0.494118 0 0 0 0.04 0"/>
<feBlend mode="normal" in2="BackgroundImageFix" result="effect1_dropShadow_333_41726"/>
<feColorMatrix in="SourceAlpha" type="matrix" values="0 0 0 0 0 0 0 0 0 0 0 0 0 0 0 0 0 0 127 0" result="hardAlpha"/>
<feMorphology radius="3.16981" operator="erode" in="SourceAlpha" result="effect2_dropShadow_333_41726"/>
<feOffset dy="6.33962"/>
<feGaussianBlur stdDeviation="3.16981"/>
<feComposite in2="hardAlpha" operator="out"/>
<feColorMatrix type="matrix" values="0 0 0 0 0.054902 0 0 0 0 0.247059 0 0 0 0 0.494118 0 0 0 0.04 0"/>
<feBlend mode="normal" in2="effect1_dropShadow_333_41726" result="effect2_dropShadow_333_41726"/>
<feColorMatrix in="SourceAlpha" type="matrix" values="0 0 0 0 0 0 0 0 0 0 0 0 0 0 0 0 0 0 127 0" result="hardAlpha"/>
<feMorphology radius="1.58491" operator="erode" in="SourceAlpha" result="effect3_dropShadow_333_41726"/>
<feOffset dy="3.16981"/>
<feGaussianBlur stdDeviation="1.58491"/>
<feComposite in2="hardAlpha" operator="out"/>
<feColorMatrix type="matrix" values="0 0 0 0 0.164706 0 0 0 0 0.2 0 0 0 0 0.27451 0 0 0 0.04 0"/>
<feBlend mode="normal" in2="effect2_dropShadow_333_41726" result="effect3_dropShadow_333_41726"/>
<feColorMatrix in="SourceAlpha" type="matrix" values="0 0 0 0 0 0 0 0 0 0 0 0 0 0 0 0 0 0 127 0" result="hardAlpha"/>
<feMorphology radius="0.792453" operator="erode" in="SourceAlpha" result="effect4_dropShadow_333_41726"/>
<feOffset dy="1.58491"/>
<feGaussianBlur stdDeviation="0.792453"/>
<feComposite in2="hardAlpha" operator="out"/>
<feColorMatrix type="matrix" values="0 0 0 0 0.164706 0 0 0 0 0.2 0 0 0 0 0.27451 0 0 0 0.04 0"/>
<feBlend mode="normal" in2="effect3_dropShadow_333_41726" result="effect4_dropShadow_333_41726"/>
<feColorMatrix in="SourceAlpha" type="matrix" values="0 0 0 0 0 0 0 0 0 0 0 0 0 0 0 0 0 0 127 0" result="hardAlpha"/>
<feMorphology radius="0.264151" operator="erode" in="SourceAlpha" result="effect5_dropShadow_333_41726"/>
<feOffset dy="0.528302"/>
<feGaussianBlur stdDeviation="0.264151"/>
<feComposite in2="hardAlpha" operator="out"/>
<feColorMatrix type="matrix" values="0 0 0 0 0.164706 0 0 0 0 0.2 0 0 0 0 0.270588 0 0 0 0.04 0"/>
<feBlend mode="normal" in2="effect4_dropShadow_333_41726" result="effect5_dropShadow_333_41726"/>
<feColorMatrix in="SourceAlpha" type="matrix" values="0 0 0 0 0 0 0 0 0 0 0 0 0 0 0 0 0 0 127 0" result="hardAlpha"/>
<feMorphology radius="0.528302" operator="dilate" in="SourceAlpha" result="effect6_dropShadow_333_41726"/>
<feOffset/>
<feComposite in2="hardAlpha" operator="out"/>
<feColorMatrix type="matrix" values="0 0 0 0 0.054902 0 0 0 0 0.247059 0 0 0 0 0.494118 0 0 0 0.04 0"/>
<feBlend mode="normal" in2="effect5_dropShadow_333_41726" result="effect6_dropShadow_333_41726"/>
<feBlend mode="normal" in="SourceGraphic" in2="effect6_dropShadow_333_41726" result="shape"/>
</filter>
<filter id="filter3_dddddd_333_41726" x="384.16" y="48.217" width="68.6792" height="80.3019" filterUnits="userSpaceOnUse" color-interpolation-filters="sRGB">
<feFlood flood-opacity="0" result="BackgroundImageFix"/>
<feColorMatrix in="SourceAlpha" type="matrix" values="0 0 0 0 0 0 0 0 0 0 0 0 0 0 0 0 0 0 127 0" result="hardAlpha"/>
<feMorphology radius="6.33962" operator="erode" in="SourceAlpha" result="effect1_dropShadow_333_41726"/>
<feOffset dy="12.6792"/>
<feGaussianBlur stdDeviation="6.33962"/>
<feComposite in2="hardAlpha" operator="out"/>
<feColorMatrix type="matrix" values="0 0 0 0 0.054902 0 0 0 0 0.247059 0 0 0 0 0.494118 0 0 0 0.04 0"/>
<feBlend mode="normal" in2="BackgroundImageFix" result="effect1_dropShadow_333_41726"/>
<feColorMatrix in="SourceAlpha" type="matrix" values="0 0 0 0 0 0 0 0 0 0 0 0 0 0 0 0 0 0 127 0" result="hardAlpha"/>
<feMorphology radius="3.16981" operator="erode" in="SourceAlpha" result="effect2_dropShadow_333_41726"/>
<feOffset dy="6.33962"/>
<feGaussianBlur stdDeviation="3.16981"/>
<feComposite in2="hardAlpha" operator="out"/>
<feColorMatrix type="matrix" values="0 0 0 0 0.054902 0 0 0 0 0.247059 0 0 0 0 0.494118 0 0 0 0.04 0"/>
<feBlend mode="normal" in2="effect1_dropShadow_333_41726" result="effect2_dropShadow_333_41726"/>
<feColorMatrix in="SourceAlpha" type="matrix" values="0 0 0 0 0 0 0 0 0 0 0 0 0 0 0 0 0 0 127 0" result="hardAlpha"/>
<feMorphology radius="1.58491" operator="erode" in="SourceAlpha" result="effect3_dropShadow_333_41726"/>
<feOffset dy="3.16981"/>
<feGaussianBlur stdDeviation="1.58491"/>
<feComposite in2="hardAlpha" operator="out"/>
<feColorMatrix type="matrix" values="0 0 0 0 0.164706 0 0 0 0 0.2 0 0 0 0 0.27451 0 0 0 0.04 0"/>
<feBlend mode="normal" in2="effect2_dropShadow_333_41726" result="effect3_dropShadow_333_41726"/>
<feColorMatrix in="SourceAlpha" type="matrix" values="0 0 0 0 0 0 0 0 0 0 0 0 0 0 0 0 0 0 127 0" result="hardAlpha"/>
<feMorphology radius="0.792453" operator="erode" in="SourceAlpha" result="effect4_dropShadow_333_41726"/>
<feOffset dy="1.58491"/>
<feGaussianBlur stdDeviation="0.792453"/>
<feComposite in2="hardAlpha" operator="out"/>
<feColorMatrix type="matrix" values="0 0 0 0 0.164706 0 0 0 0 0.2 0 0 0 0 0.27451 0 0 0 0.04 0"/>
<feBlend mode="normal" in2="effect3_dropShadow_333_41726" result="effect4_dropShadow_333_41726"/>
<feColorMatrix in="SourceAlpha" type="matrix" values="0 0 0 0 0 0 0 0 0 0 0 0 0 0 0 0 0 0 127 0" result="hardAlpha"/>
<feMorphology radius="0.264151" operator="erode" in="SourceAlpha" result="effect5_dropShadow_333_41726"/>
<feOffset dy="0.528302"/>
<feGaussianBlur stdDeviation="0.264151"/>
<feComposite in2="hardAlpha" operator="out"/>
<feColorMatrix type="matrix" values="0 0 0 0 0.164706 0 0 0 0 0.2 0 0 0 0 0.270588 0 0 0 0.04 0"/>
<feBlend mode="normal" in2="effect4_dropShadow_333_41726" result="effect5_dropShadow_333_41726"/>
<feColorMatrix in="SourceAlpha" type="matrix" values="0 0 0 0 0 0 0 0 0 0 0 0 0 0 0 0 0 0 127 0" result="hardAlpha"/>
<feMorphology radius="0.528302" operator="dilate" in="SourceAlpha" result="effect6_dropShadow_333_41726"/>
<feOffset/>
<feComposite in2="hardAlpha" operator="out"/>
<feColorMatrix type="matrix" values="0 0 0 0 0.054902 0 0 0 0 0.247059 0 0 0 0 0.494118 0 0 0 0.04 0"/>
<feBlend mode="normal" in2="effect5_dropShadow_333_41726" result="effect6_dropShadow_333_41726"/>
<feBlend mode="normal" in="SourceGraphic" in2="effect6_dropShadow_333_41726" result="shape"/>
</filter>
<filter id="filter4_d_333_41726" x="404.334" y="67.9942" width="28.3312" height="28.3312" filterUnits="userSpaceOnUse" color-interpolation-filters="sRGB">
<feFlood flood-opacity="0" result="BackgroundImageFix"/>
<feColorMatrix in="SourceAlpha" type="matrix" values="0 0 0 0 0 0 0 0 0 0 0 0 0 0 0 0 0 0 127 0" result="hardAlpha"/>
<feOffset dy="0.659774"/>
<feGaussianBlur stdDeviation="0.582801"/>
<feComposite in2="hardAlpha" operator="out"/>
<feColorMatrix type="matrix" values="0 0 0 0 0 0 0 0 0 0 0 0 0 0 0 0 0 0 0.05 0"/>
<feBlend mode="normal" in2="BackgroundImageFix" result="effect1_dropShadow_333_41726"/>
<feBlend mode="normal" in="SourceGraphic" in2="effect1_dropShadow_333_41726" result="shape"/>
</filter>
<filter id="filter5_dddddd_333_41726" x="178.16" y="217.217" width="68.6792" height="80.3019" filterUnits="userSpaceOnUse" color-interpolation-filters="sRGB">
<feFlood flood-opacity="0" result="BackgroundImageFix"/>
<feColorMatrix in="SourceAlpha" type="matrix" values="0 0 0 0 0 0 0 0 0 0 0 0 0 0 0 0 0 0 127 0" result="hardAlpha"/>
<feMorphology radius="6.33962" operator="erode" in="SourceAlpha" result="effect1_dropShadow_333_41726"/>
<feOffset dy="12.6792"/>
<feGaussianBlur stdDeviation="6.33962"/>
<feComposite in2="hardAlpha" operator="out"/>
<feColorMatrix type="matrix" values="0 0 0 0 0.054902 0 0 0 0 0.247059 0 0 0 0 0.494118 0 0 0 0.04 0"/>
<feBlend mode="normal" in2="BackgroundImageFix" result="effect1_dropShadow_333_41726"/>
<feColorMatrix in="SourceAlpha" type="matrix" values="0 0 0 0 0 0 0 0 0 0 0 0 0 0 0 0 0 0 127 0" result="hardAlpha"/>
<feMorphology radius="3.16981" operator="erode" in="SourceAlpha" result="effect2_dropShadow_333_41726"/>
<feOffset dy="6.33962"/>
<feGaussianBlur stdDeviation="3.16981"/>
<feComposite in2="hardAlpha" operator="out"/>
<feColorMatrix type="matrix" values="0 0 0 0 0.054902 0 0 0 0 0.247059 0 0 0 0 0.494118 0 0 0 0.04 0"/>
<feBlend mode="normal" in2="effect1_dropShadow_333_41726" result="effect2_dropShadow_333_41726"/>
<feColorMatrix in="SourceAlpha" type="matrix" values="0 0 0 0 0 0 0 0 0 0 0 0 0 0 0 0 0 0 127 0" result="hardAlpha"/>
<feMorphology radius="1.58491" operator="erode" in="SourceAlpha" result="effect3_dropShadow_333_41726"/>
<feOffset dy="3.16981"/>
<feGaussianBlur stdDeviation="1.58491"/>
<feComposite in2="hardAlpha" operator="out"/>
<feColorMatrix type="matrix" values="0 0 0 0 0.164706 0 0 0 0 0.2 0 0 0 0 0.27451 0 0 0 0.04 0"/>
<feBlend mode="normal" in2="effect2_dropShadow_333_41726" result="effect3_dropShadow_333_41726"/>
<feColorMatrix in="SourceAlpha" type="matrix" values="0 0 0 0 0 0 0 0 0 0 0 0 0 0 0 0 0 0 127 0" result="hardAlpha"/>
<feMorphology radius="0.792453" operator="erode" in="SourceAlpha" result="effect4_dropShadow_333_41726"/>
<feOffset dy="1.58491"/>
<feGaussianBlur stdDeviation="0.792453"/>
<feComposite in2="hardAlpha" operator="out"/>
<feColorMatrix type="matrix" values="0 0 0 0 0.164706 0 0 0 0 0.2 0 0 0 0 0.27451 0 0 0 0.04 0"/>
<feBlend mode="normal" in2="effect3_dropShadow_333_41726" result="effect4_dropShadow_333_41726"/>
<feColorMatrix in="SourceAlpha" type="matrix" values="0 0 0 0 0 0 0 0 0 0 0 0 0 0 0 0 0 0 127 0" result="hardAlpha"/>
<feMorphology radius="0.264151" operator="erode" in="SourceAlpha" result="effect5_dropShadow_333_41726"/>
<feOffset dy="0.528302"/>
<feGaussianBlur stdDeviation="0.264151"/>
<feComposite in2="hardAlpha" operator="out"/>
<feColorMatrix type="matrix" values="0 0 0 0 0.164706 0 0 0 0 0.2 0 0 0 0 0.270588 0 0 0 0.04 0"/>
<feBlend mode="normal" in2="effect4_dropShadow_333_41726" result="effect5_dropShadow_333_41726"/>
<feColorMatrix in="SourceAlpha" type="matrix" values="0 0 0 0 0 0 0 0 0 0 0 0 0 0 0 0 0 0 127 0" result="hardAlpha"/>
<feMorphology radius="0.528302" operator="dilate" in="SourceAlpha" result="effect6_dropShadow_333_41726"/>
<feOffset/>
<feComposite in2="hardAlpha" operator="out"/>
<feColorMatrix type="matrix" values="0 0 0 0 0.054902 0 0 0 0 0.247059 0 0 0 0 0.494118 0 0 0 0.04 0"/>
<feBlend mode="normal" in2="effect5_dropShadow_333_41726" result="effect6_dropShadow_333_41726"/>
<feBlend mode="normal" in="SourceGraphic" in2="effect6_dropShadow_333_41726" result="shape"/>
</filter>
<filter id="filter6_dddddd_333_41726" x="384.16" y="217.217" width="68.6792" height="80.3019" filterUnits="userSpaceOnUse" color-interpolation-filters="sRGB">
<feFlood flood-opacity="0" result="BackgroundImageFix"/>
<feColorMatrix in="SourceAlpha" type="matrix" values="0 0 0 0 0 0 0 0 0 0 0 0 0 0 0 0 0 0 127 0" result="hardAlpha"/>
<feMorphology radius="6.33962" operator="erode" in="SourceAlpha" result="effect1_dropShadow_333_41726"/>
<feOffset dy="12.6792"/>
<feGaussianBlur stdDeviation="6.33962"/>
<feComposite in2="hardAlpha" operator="out"/>
<feColorMatrix type="matrix" values="0 0 0 0 0.054902 0 0 0 0 0.247059 0 0 0 0 0.494118 0 0 0 0.04 0"/>
<feBlend mode="normal" in2="BackgroundImageFix" result="effect1_dropShadow_333_41726"/>
<feColorMatrix in="SourceAlpha" type="matrix" values="0 0 0 0 0 0 0 0 0 0 0 0 0 0 0 0 0 0 127 0" result="hardAlpha"/>
<feMorphology radius="3.16981" operator="erode" in="SourceAlpha" result="effect2_dropShadow_333_41726"/>
<feOffset dy="6.33962"/>
<feGaussianBlur stdDeviation="3.16981"/>
<feComposite in2="hardAlpha" operator="out"/>
<feColorMatrix type="matrix" values="0 0 0 0 0.054902 0 0 0 0 0.247059 0 0 0 0 0.494118 0 0 0 0.04 0"/>
<feBlend mode="normal" in2="effect1_dropShadow_333_41726" result="effect2_dropShadow_333_41726"/>
<feColorMatrix in="SourceAlpha" type="matrix" values="0 0 0 0 0 0 0 0 0 0 0 0 0 0 0 0 0 0 127 0" result="hardAlpha"/>
<feMorphology radius="1.58491" operator="erode" in="SourceAlpha" result="effect3_dropShadow_333_41726"/>
<feOffset dy="3.16981"/>
<feGaussianBlur stdDeviation="1.58491"/>
<feComposite in2="hardAlpha" operator="out"/>
<feColorMatrix type="matrix" values="0 0 0 0 0.164706 0 0 0 0 0.2 0 0 0 0 0.27451 0 0 0 0.04 0"/>
<feBlend mode="normal" in2="effect2_dropShadow_333_41726" result="effect3_dropShadow_333_41726"/>
<feColorMatrix in="SourceAlpha" type="matrix" values="0 0 0 0 0 0 0 0 0 0 0 0 0 0 0 0 0 0 127 0" result="hardAlpha"/>
<feMorphology radius="0.792453" operator="erode" in="SourceAlpha" result="effect4_dropShadow_333_41726"/>
<feOffset dy="1.58491"/>
<feGaussianBlur stdDeviation="0.792453"/>
<feComposite in2="hardAlpha" operator="out"/>
<feColorMatrix type="matrix" values="0 0 0 0 0.164706 0 0 0 0 0.2 0 0 0 0 0.27451 0 0 0 0.04 0"/>
<feBlend mode="normal" in2="effect3_dropShadow_333_41726" result="effect4_dropShadow_333_41726"/>
<feColorMatrix in="SourceAlpha" type="matrix" values="0 0 0 0 0 0 0 0 0 0 0 0 0 0 0 0 0 0 127 0" result="hardAlpha"/>
<feMorphology radius="0.264151" operator="erode" in="SourceAlpha" result="effect5_dropShadow_333_41726"/>
<feOffset dy="0.528302"/>
<feGaussianBlur stdDeviation="0.264151"/>
<feComposite in2="hardAlpha" operator="out"/>
<feColorMatrix type="matrix" values="0 0 0 0 0.164706 0 0 0 0 0.2 0 0 0 0 0.270588 0 0 0 0.04 0"/>
<feBlend mode="normal" in2="effect4_dropShadow_333_41726" result="effect5_dropShadow_333_41726"/>
<feColorMatrix in="SourceAlpha" type="matrix" values="0 0 0 0 0 0 0 0 0 0 0 0 0 0 0 0 0 0 127 0" result="hardAlpha"/>
<feMorphology radius="0.528302" operator="dilate" in="SourceAlpha" result="effect6_dropShadow_333_41726"/>
<feOffset/>
<feComposite in2="hardAlpha" operator="out"/>
<feColorMatrix type="matrix" values="0 0 0 0 0.054902 0 0 0 0 0.247059 0 0 0 0 0.494118 0 0 0 0.04 0"/>
<feBlend mode="normal" in2="effect5_dropShadow_333_41726" result="effect6_dropShadow_333_41726"/>
<feBlend mode="normal" in="SourceGraphic" in2="effect6_dropShadow_333_41726" result="shape"/>
</filter>
<filter id="filter7_d_333_41726" x="404.334" y="236.994" width="28.3312" height="28.3312" filterUnits="userSpaceOnUse" color-interpolation-filters="sRGB">
<feFlood flood-opacity="0" result="BackgroundImageFix"/>
<feColorMatrix in="SourceAlpha" type="matrix" values="0 0 0 0 0 0 0 0 0 0 0 0 0 0 0 0 0 0 127 0" result="hardAlpha"/>
<feOffset dy="0.659774"/>
<feGaussianBlur stdDeviation="0.582801"/>
<feComposite in2="hardAlpha" operator="out"/>
<feColorMatrix type="matrix" values="0 0 0 0 0 0 0 0 0 0 0 0 0 0 0 0 0 0 0.05 0"/>
<feBlend mode="normal" in2="BackgroundImageFix" result="effect1_dropShadow_333_41726"/>
<feBlend mode="normal" in="SourceGraphic" in2="effect1_dropShadow_333_41726" result="shape"/>
</filter>
<filter id="filter8_dddddd_333_41726" x="250.5" y="109.5" width="130" height="152" filterUnits="userSpaceOnUse" color-interpolation-filters="sRGB">
<feFlood flood-opacity="0" result="BackgroundImageFix"/>
<feColorMatrix in="SourceAlpha" type="matrix" values="0 0 0 0 0 0 0 0 0 0 0 0 0 0 0 0 0 0 127 0" result="hardAlpha"/>
<feMorphology radius="12" operator="erode" in="SourceAlpha" result="effect1_dropShadow_333_41726"/>
<feOffset dy="24"/>
<feGaussianBlur stdDeviation="12"/>
<feComposite in2="hardAlpha" operator="out"/>
<feColorMatrix type="matrix" values="0 0 0 0 0.054902 0 0 0 0 0.247059 0 0 0 0 0.494118 0 0 0 0.04 0"/>
<feBlend mode="normal" in2="BackgroundImageFix" result="effect1_dropShadow_333_41726"/>
<feColorMatrix in="SourceAlpha" type="matrix" values="0 0 0 0 0 0 0 0 0 0 0 0 0 0 0 0 0 0 127 0" result="hardAlpha"/>
<feMorphology radius="6" operator="erode" in="SourceAlpha" result="effect2_dropShadow_333_41726"/>
<feOffset dy="12"/>
<feGaussianBlur stdDeviation="6"/>
<feComposite in2="hardAlpha" operator="out"/>
<feColorMatrix type="matrix" values="0 0 0 0 0.054902 0 0 0 0 0.247059 0 0 0 0 0.494118 0 0 0 0.04 0"/>
<feBlend mode="normal" in2="effect1_dropShadow_333_41726" result="effect2_dropShadow_333_41726"/>
<feColorMatrix in="SourceAlpha" type="matrix" values="0 0 0 0 0 0 0 0 0 0 0 0 0 0 0 0 0 0 127 0" result="hardAlpha"/>
<feMorphology radius="3" operator="erode" in="SourceAlpha" result="effect3_dropShadow_333_41726"/>
<feOffset dy="6"/>
<feGaussianBlur stdDeviation="3"/>
<feComposite in2="hardAlpha" operator="out"/>
<feColorMatrix type="matrix" values="0 0 0 0 0.164706 0 0 0 0 0.2 0 0 0 0 0.27451 0 0 0 0.04 0"/>
<feBlend mode="normal" in2="effect2_dropShadow_333_41726" result="effect3_dropShadow_333_41726"/>
<feColorMatrix in="SourceAlpha" type="matrix" values="0 0 0 0 0 0 0 0 0 0 0 0 0 0 0 0 0 0 127 0" result="hardAlpha"/>
<feMorphology radius="1.5" operator="erode" in="SourceAlpha" result="effect4_dropShadow_333_41726"/>
<feOffset dy="3"/>
<feGaussianBlur stdDeviation="1.5"/>
<feComposite in2="hardAlpha" operator="out"/>
<feColorMatrix type="matrix" values="0 0 0 0 0.164706 0 0 0 0 0.2 0 0 0 0 0.27451 0 0 0 0.04 0"/>
<feBlend mode="normal" in2="effect3_dropShadow_333_41726" result="effect4_dropShadow_333_41726"/>
<feColorMatrix in="SourceAlpha" type="matrix" values="0 0 0 0 0 0 0 0 0 0 0 0 0 0 0 0 0 0 127 0" result="hardAlpha"/>
<feMorphology radius="0.5" operator="erode" in="SourceAlpha" result="effect5_dropShadow_333_41726"/>
<feOffset dy="1"/>
<feGaussianBlur stdDeviation="0.5"/>
<feComposite in2="hardAlpha" operator="out"/>
<feColorMatrix type="matrix" values="0 0 0 0 0.164706 0 0 0 0 0.2 0 0 0 0 0.270588 0 0 0 0.04 0"/>
<feBlend mode="normal" in2="effect4_dropShadow_333_41726" result="effect5_dropShadow_333_41726"/>
<feColorMatrix in="SourceAlpha" type="matrix" values="0 0 0 0 0 0 0 0 0 0 0 0 0 0 0 0 0 0 127 0" result="hardAlpha"/>
<feMorphology radius="1" operator="dilate" in="SourceAlpha" result="effect6_dropShadow_333_41726"/>
<feOffset/>
<feComposite in2="hardAlpha" operator="out"/>
<feColorMatrix type="matrix" values="0 0 0 0 0.054902 0 0 0 0 0.247059 0 0 0 0 0.494118 0 0 0 0.04 0"/>
<feBlend mode="normal" in2="effect5_dropShadow_333_41726" result="effect6_dropShadow_333_41726"/>
<feBlend mode="normal" in="SourceGraphic" in2="effect6_dropShadow_333_41726" result="shape"/>
</filter>
<filter id="filter9_di_333_41726" x="280" y="132.5" width="67" height="83" filterUnits="userSpaceOnUse" color-interpolation-filters="sRGB">
<feFlood flood-opacity="0" result="BackgroundImageFix"/>
<feColorMatrix in="SourceAlpha" type="matrix" values="0 0 0 0 0 0 0 0 0 0 0 0 0 0 0 0 0 0 127 0" result="hardAlpha"/>
<feOffset dy="2.5"/>
<feGaussianBlur stdDeviation="6"/>
<feColorMatrix type="matrix" values="0 0 0 0 0 0 0 0 0 0 0 0 0 0 0 0 0 0 0.2 0"/>
<feBlend mode="normal" in2="BackgroundImageFix" result="effect1_dropShadow_333_41726"/>
<feBlend mode="normal" in="SourceGraphic" in2="effect1_dropShadow_333_41726" result="shape"/>
<feColorMatrix in="SourceAlpha" type="matrix" values="0 0 0 0 0 0 0 0 0 0 0 0 0 0 0 0 0 0 127 0" result="hardAlpha"/>
<feOffset dy="-2.61"/>
<feGaussianBlur stdDeviation="3"/>
<feComposite in2="hardAlpha" operator="arithmetic" k2="-1" k3="1"/>
<feColorMatrix type="matrix" values="0 0 0 0 0.3 0 0 0 0 0.604785 0 0 0 0 1 0 0 0 0.23 0"/>
<feBlend mode="normal" in2="shape" result="effect2_innerShadow_333_41726"/>
</filter>
<linearGradient id="paint0_linear_333_41726" x1="2128.5" y1="150.5" x2="2128.5" y2="3326.77" gradientUnits="userSpaceOnUse">
<stop stop-color="#A0A0A0"/>
<stop offset="1" stop-color="#8C8C8C"/>
</linearGradient>
<linearGradient id="paint1_linear_333_41726" x1="418.706" y1="261.775" x2="418.706" y2="240.727" gradientUnits="userSpaceOnUse">
<stop stop-color="#8C8C8C"/>
<stop offset="1" stop-color="#ACACAC"/>
</linearGradient>
<clipPath id="clip0_333_41726">
<rect width="26.232" height="26.232" fill="white" transform="translate(73.5 153.5)"/>
</clipPath>
<clipPath id="clip1_333_41726">
<rect width="32" height="32" fill="white" transform="translate(528.5 150.5)"/>
</clipPath>
<clipPath id="clip2_333_41726">
<rect width="29.1221" height="22.0926" fill="white" transform="translate(198 70.5)"/>
</clipPath>
<clipPath id="clip3_333_41726">
<rect width="17.4311" height="16.0963" fill="white" transform="translate(409.784 73.4518)"/>
</clipPath>
<clipPath id="clip4_333_41726">
<rect width="29.4202" height="29.3933" fill="white" transform="translate(197.775 235.5)"/>
</clipPath>
</defs>
</svg>
