<svg width="631" height="332" viewBox="0 0 631 332" fill="none" xmlns="http://www.w3.org/2000/svg">
<path d="M248.427 234.675C211.384 271.775 151.326 271.775 114.282 234.675C77.2393 197.575 77.2393 137.425 114.282 100.325C151.326 63.225 211.384 63.225 248.427 100.325L325.5 177.5L382.573 234.675C419.616 271.775 479.675 271.775 516.718 234.675C553.761 197.575 553.761 137.425 516.718 100.325C479.675 63.2251 419.616 63.2251 382.573 100.325L248.427 234.675Z" stroke="#1D3E7A" stroke-opacity="0.09"/>
<g filter="url(#filter0_dddddd_194_31819)">
<path d="M58.5 166.5C58.5 151.036 71.036 138.5 86.5 138.5C101.964 138.5 114.5 151.036 114.5 166.5C114.5 181.964 101.964 194.5 86.5 194.5C71.036 194.5 58.5 181.964 58.5 166.5Z" fill="white" fill-opacity="0.72" shape-rendering="crispEdges"/>
<path d="M59 166.5C59 151.312 71.3122 139 86.5 139C101.688 139 114 151.312 114 166.5C114 181.688 101.688 194 86.5 194C71.3122 194 59 181.688 59 166.5Z" stroke="#242A30" stroke-opacity="0.02" shape-rendering="crispEdges"/>
<g clip-path="url(#clip0_194_31819)">
<path d="M96.234 167.922C96.2292 168.404 95.8332 168.792 95.3496 168.787C94.8744 168.782 94.4904 168.398 94.4844 167.922V160.058C94.4892 159.576 94.8852 159.188 95.3688 159.193C95.844 159.198 96.228 159.582 96.234 160.058V167.922ZM95.9292 173.395C95.7936 173.51 92.5548 176.228 86.616 176.228C80.6772 176.228 77.4384 173.51 77.3028 173.394C76.9368 173.079 76.8936 172.527 77.208 172.161C77.5212 171.795 78.072 171.752 78.4392 172.065C78.4908 172.108 81.3828 174.48 86.616 174.48C91.8492 174.48 94.7628 172.092 94.7904 172.068C95.1564 171.753 95.7096 171.795 96.0228 172.162C96.3372 172.53 96.2952 173.082 95.928 173.395H95.9292ZM76.998 160.058C77.0028 159.576 77.3988 159.188 77.8824 159.193C78.3576 159.198 78.7416 159.582 78.7476 160.058V167.922C78.7428 168.404 78.3468 168.792 77.8632 168.787C77.388 168.782 77.004 168.398 76.998 167.922V160.058ZM81.3696 158.31C81.3768 157.827 81.774 157.441 82.2576 157.449C82.7304 157.456 83.1108 157.838 83.118 158.31V169.99C83.1108 170.473 82.7136 170.859 82.23 170.851C81.7572 170.844 81.3768 170.462 81.3696 169.99V158.31ZM85.7412 157.867C85.7412 157.384 86.1324 156.992 86.6148 156.992C87.0972 156.992 87.4896 157.383 87.4896 157.866V170.545C87.4848 171.027 87.0888 171.415 86.6052 171.41C86.13 171.405 85.746 171.021 85.74 170.545V157.867H85.7412ZM90.114 158.31C90.1212 157.827 90.5184 157.441 91.002 157.449C91.4748 157.456 91.8552 157.838 91.8624 158.31V169.99C91.8552 170.473 91.458 170.859 90.9744 170.851C90.5016 170.844 90.1212 170.462 90.114 169.99V158.31ZM96.4524 153.5H76.7784C74.9676 153.5 73.5 154.968 73.5 156.778V176.452C73.5 178.263 74.9676 179.731 76.7784 179.731H96.4524C98.2632 179.731 99.7308 178.263 99.7308 176.452V156.778C99.7308 154.968 98.2632 153.5 96.4524 153.5Z" fill="#D6D6D6"/>
</g>
</g>
<g filter="url(#filter1_dddddd_194_31819)">
<path d="M516.5 166.5C516.5 151.036 529.036 138.5 544.5 138.5C559.964 138.5 572.5 151.036 572.5 166.5C572.5 181.964 559.964 194.5 544.5 194.5C529.036 194.5 516.5 181.964 516.5 166.5Z" fill="white" fill-opacity="0.72" shape-rendering="crispEdges"/>
<path d="M517 166.5C517 151.312 529.312 139 544.5 139C559.688 139 572 151.312 572 166.5C572 181.688 559.688 194 544.5 194C529.312 194 517 181.688 517 166.5Z" stroke="#242A30" stroke-opacity="0.02" shape-rendering="crispEdges"/>
<g clip-path="url(#clip1_194_31819)">
<path d="M544.5 182.5C553.337 182.5 560.5 175.337 560.5 166.5C560.5 157.663 553.337 150.5 544.5 150.5C535.663 150.5 528.5 157.663 528.5 166.5C528.5 175.337 535.663 182.5 544.5 182.5Z" fill="url(#paint0_linear_194_31819)"/>
<path fill-rule="evenodd" clip-rule="evenodd" d="M535.743 166.331C540.408 164.299 543.518 162.959 545.074 162.312C549.518 160.464 550.441 160.143 551.043 160.132C551.175 160.13 551.471 160.163 551.663 160.318C551.825 160.449 551.869 160.627 551.89 160.751C551.912 160.876 551.938 161.16 551.917 161.381C551.676 163.911 550.634 170.051 550.104 172.885C549.88 174.084 549.438 174.486 549.011 174.525C548.082 174.61 547.376 173.911 546.476 173.321C545.068 172.398 544.273 171.823 542.906 170.922C541.326 169.881 542.35 169.309 543.25 168.374C543.486 168.13 547.58 164.406 547.659 164.068C547.669 164.026 547.678 163.868 547.584 163.785C547.491 163.702 547.353 163.73 547.253 163.753C547.112 163.785 544.862 165.272 540.504 168.214C539.866 168.652 539.287 168.866 538.769 168.855C538.198 168.842 537.099 168.532 536.282 168.266C535.28 167.94 534.484 167.768 534.553 167.215C534.589 166.927 534.986 166.632 535.743 166.331Z" fill="white"/>
</g>
</g>
<g filter="url(#filter2_dddddd_194_31819)">
<path d="M184.5 81.5C184.5 66.036 197.036 53.5 212.5 53.5C227.964 53.5 240.5 66.036 240.5 81.5C240.5 96.964 227.964 109.5 212.5 109.5C197.036 109.5 184.5 96.964 184.5 81.5Z" fill="white" fill-opacity="0.72" shape-rendering="crispEdges"/>
<path d="M185 81.5C185 66.3122 197.312 54 212.5 54C227.688 54 240 66.3122 240 81.5C240 96.6878 227.688 109 212.5 109C197.312 109 185 96.6878 185 81.5Z" stroke="#242A30" stroke-opacity="0.02" shape-rendering="crispEdges"/>
<g clip-path="url(#clip2_194_31819)">
<path d="M220.461 72.6147V81.2583L212.534 87.198L204.657 81.2583C204.659 81.2215 204.591 81.1439 204.576 81.0948L204.657 72.6147C207.302 74.5676 209.937 76.5369 212.53 78.5609C215.173 76.5786 217.808 74.5832 220.461 72.6147Z" fill="#7A7A7A"/>
<path d="M204.576 81.0957C204.59 81.1447 204.66 81.2223 204.657 81.2591C204.656 81.2828 204.571 81.3849 204.571 81.5353C204.575 85.2213 204.58 88.909 204.576 92.5934H199.698C199.091 92.5934 198.102 91.639 198.052 90.996C198.066 86.0662 198.01 81.1324 198.045 76.2035C200.225 77.8239 202.35 79.5578 204.576 81.0965V81.0957Z" fill="#787878"/>
<path d="M227.072 76.2844C227.106 81.1863 227.053 86.0924 227.065 90.9959C227.016 91.639 226.027 92.5934 225.419 92.5934H220.541V81.2591C222.675 79.539 224.879 77.9244 227.072 76.2852V76.2844Z" fill="#8C8C8C"/>
<path d="M227.073 76.2844C224.879 77.9236 222.676 79.5391 220.542 81.2583H220.461V72.6147C222.094 71.4029 223.462 69.6502 225.675 70.9699C227.551 72.0885 227.059 74.3781 227.073 76.2836V76.2844Z" fill="#BDBDBD"/>
<path d="M204.657 72.6147L204.576 81.0948C202.351 79.557 200.225 77.8231 198.045 76.2027C198.058 74.3299 197.584 72.0738 199.44 70.9682C201.628 69.6649 203.039 71.4209 204.657 72.6147Z" fill="#626262"/>
</g>
</g>
<g filter="url(#filter3_dddddd_194_31819)">
<path d="M390.5 81.5C390.5 66.036 403.036 53.5 418.5 53.5C433.964 53.5 446.5 66.036 446.5 81.5C446.5 96.964 433.964 109.5 418.5 109.5C403.036 109.5 390.5 96.964 390.5 81.5Z" fill="white" fill-opacity="0.72" shape-rendering="crispEdges"/>
<path d="M391 81.5C391 66.3122 403.312 54 418.5 54C433.688 54 446 66.3122 446 81.5C446 96.6878 433.688 109 418.5 109C403.312 109 391 96.6878 391 81.5Z" stroke="#242A30" stroke-opacity="0.02" shape-rendering="crispEdges"/>
<g filter="url(#filter4_d_194_31819)">
<rect x="405.5" y="68.5" width="26" height="26" rx="3.90977" fill="#E4E4E4" shape-rendering="crispEdges"/>
<rect x="405.577" y="68.577" width="25.8461" height="25.8461" rx="3.8328" stroke="#242A30" stroke-opacity="0.04" stroke-width="0.153947" shape-rendering="crispEdges"/>
<g clip-path="url(#clip3_194_31819)">
<path d="M413.062 89.4763C413.013 89.4254 412.981 89.323 412.998 89.2531L413.825 86.1602C412.216 85.3286 410.771 84.0146 410.137 82.2804C409.126 79.512 410.392 76.8341 412.679 75.2138C415.99 72.8688 420.995 72.8628 424.308 75.2054C427.005 77.1122 428.163 80.4148 426.319 83.3779C424.425 86.4217 420.345 87.6078 416.925 87.1291L413.37 89.521C413.279 89.5697 413.134 89.5515 413.062 89.4763ZM417.543 81.7341C417.649 81.9691 417.689 82.5028 417.981 82.5786C418.345 82.6732 418.611 82.3991 418.475 82.0434L417.25 78.7158C416.981 78.1977 416.344 78.2225 416.086 78.7436C415.73 79.8256 415.197 80.9057 414.86 81.9873C414.809 82.1504 414.767 82.2707 414.872 82.4271C414.983 82.5942 415.271 82.6477 415.441 82.5485C415.658 82.422 415.694 81.9405 415.817 81.7303L417.543 81.7341H417.543ZM419.781 81.7928V78.6655C419.781 78.5723 419.649 78.4141 419.556 78.3788C419.19 78.2402 418.965 78.4484 418.94 78.8082C418.866 79.8647 418.998 81.0053 418.94 82.0708C418.957 82.3235 419.037 82.494 419.301 82.55L421.034 82.5427C421.315 82.4753 421.445 82.1228 421.237 81.906C421.202 81.8685 421.069 81.7931 421.022 81.7931H419.781V81.7928ZM422.529 80.0703V78.6656C422.529 78.6578 422.479 78.5398 422.469 78.5214C422.291 78.2142 421.726 78.3169 421.694 78.6915L421.688 82.1937C421.737 82.7599 422.477 82.6983 422.529 82.234C422.554 82.0166 422.484 81.1558 422.549 81.0434C422.559 81.0248 422.791 80.7928 422.809 80.7897C422.839 80.7845 422.86 80.8221 422.877 80.84C423.264 81.2422 423.611 81.9093 423.986 82.3564C424.078 82.4662 424.171 82.5791 424.323 82.5936C424.759 82.6357 424.948 82.2633 424.687 81.9216L423.431 80.2651C423.743 79.8575 424.161 79.5408 424.499 79.1582C424.655 78.9818 424.816 78.8213 424.666 78.5795C424.539 78.3747 424.228 78.3522 424.049 78.5033C423.535 79.018 423.05 79.563 422.53 80.0703H422.529ZM412.265 79.1269H413.26V82.1927C413.26 82.2565 413.32 82.4062 413.363 82.4593C413.503 82.6339 413.846 82.6456 413.995 82.4766C414.018 82.4509 414.101 82.2982 414.101 82.2747V79.1268H415.095C415.185 79.1268 415.308 78.9768 415.332 78.8919C415.415 78.6016 415.23 78.3688 414.932 78.3673C414.121 78.4111 413.254 78.3117 412.449 78.3671C412.152 78.3875 411.988 78.5342 412.032 78.8483C412.046 78.9524 412.163 79.1062 412.266 79.1269H412.265Z" fill="#272727"/>
<path d="M422.529 80.0703C423.05 79.5631 423.534 79.0179 424.049 78.5033C424.228 78.3524 424.539 78.3749 424.666 78.5796C424.815 78.8212 424.654 78.9819 424.498 79.1583C424.16 79.5409 423.743 79.8575 423.431 80.2652L424.687 81.9217C424.948 82.2635 424.759 82.6357 424.322 82.5937C424.171 82.5791 424.078 82.4663 423.986 82.3564C423.611 81.9093 423.264 81.2422 422.877 80.8401C422.86 80.822 422.838 80.7845 422.809 80.7897C422.791 80.7929 422.559 81.0247 422.548 81.0434C422.484 81.1559 422.554 82.0166 422.529 82.2341C422.477 82.6984 421.736 82.76 421.688 82.1937L421.694 78.6915C421.725 78.317 422.291 78.2142 422.468 78.5214C422.479 78.5399 422.529 78.6578 422.529 78.6656V80.0703H422.529Z" fill="#DBDBDB"/>
<path d="M417.543 81.7342L415.816 81.7304C415.694 81.9404 415.658 82.422 415.441 82.5486C415.271 82.6478 414.983 82.5943 414.871 82.4272C414.767 82.2708 414.808 82.1505 414.859 81.9874C415.196 80.9058 415.73 79.8257 416.086 78.7437C416.344 78.2226 416.981 78.1978 417.249 78.7159L418.474 82.0435C418.61 82.3991 418.344 82.6732 417.98 82.5787C417.689 82.5029 417.648 81.9692 417.543 81.7342H417.543ZM417.3 80.9932L416.684 79.0861L416.049 80.9932H417.3Z" fill="#DBDBDB"/>
<path d="M412.264 79.127C412.161 79.1063 412.045 78.9525 412.03 78.8484C411.987 78.5344 412.151 78.3877 412.448 78.3672C413.253 78.3118 414.12 78.4111 414.931 78.3674C415.228 78.369 415.414 78.6018 415.331 78.892C415.307 78.9768 415.184 79.1268 415.094 79.1268H414.1V82.2747C414.1 82.2983 414.017 82.451 413.994 82.4767C413.845 82.6457 413.502 82.634 413.361 82.4593C413.319 82.4062 413.259 82.2565 413.259 82.1928V79.127H412.264H412.264Z" fill="#DBDBDB"/>
<path d="M419.781 81.7929H421.021C421.068 81.7929 421.201 81.8685 421.237 81.9058C421.444 82.1227 421.314 82.4752 421.033 82.5426L419.301 82.5498C419.036 82.4938 418.957 82.3233 418.939 82.0706C418.997 81.0051 418.866 79.8646 418.939 78.808C418.964 78.4482 419.189 78.2401 419.555 78.3786C419.648 78.414 419.781 78.5722 419.781 78.6653V81.7927V81.7929Z" fill="#DBDBDB"/>
<path d="M417.3 80.9932H416.049L416.684 79.086L417.3 80.9932Z" fill="#272727"/>
</g>
</g>
</g>
<g filter="url(#filter5_dddddd_194_31819)">
<path d="M184.5 250.5C184.5 235.036 197.036 222.5 212.5 222.5C227.964 222.5 240.5 235.036 240.5 250.5C240.5 265.964 227.964 278.5 212.5 278.5C197.036 278.5 184.5 265.964 184.5 250.5Z" fill="white" fill-opacity="0.72" shape-rendering="crispEdges"/>
<path d="M185 250.5C185 235.312 197.312 223 212.5 223C227.688 223 240 235.312 240 250.5C240 265.688 227.688 278 212.5 278C197.312 278 185 265.688 185 250.5Z" stroke="#242A30" stroke-opacity="0.02" shape-rendering="crispEdges"/>
<g clip-path="url(#clip4_194_31819)">
<path d="M208.392 250.98C210.168 250.832 211.674 252.306 211.729 254.057C211.583 256.598 211.914 259.337 211.729 261.855C211.43 265.929 205.821 265.743 205.528 262.046C205.32 259.418 205.69 256.521 205.528 253.865C205.649 252.326 206.85 251.11 208.392 250.98Z" fill="#6B6B6B"/>
<path d="M215.992 235.521C217.766 235.321 219.273 236.592 219.458 238.344C219.298 241.002 219.663 243.894 219.458 246.524C219.162 250.32 213.537 250.429 213.257 246.333C213.403 243.791 213.072 241.052 213.257 238.535C213.37 237.003 214.422 235.698 215.992 235.521H215.992Z" fill="#919191"/>
<path d="M216.183 250.98C218.773 251.089 221.585 250.77 224.151 250.959C228.035 251.245 228.213 256.53 224.46 257.149C221.766 257.006 218.827 257.368 216.162 257.16C212.391 256.865 212.296 251.344 216.183 250.98Z" fill="#AFAFAF"/>
<path d="M200.532 243.25C203.128 242.958 206.178 243.433 208.821 243.23C212.391 243.592 212.724 248.489 209.249 249.348C206.553 249.352 203.578 249.614 200.895 249.431C196.806 249.152 196.903 243.659 200.532 243.25Z" fill="#A5A5A5"/>
<path d="M203.996 250.961V254.379C203.996 254.97 203.386 255.996 202.94 256.389C200.317 258.701 196.454 255.513 198.22 252.5C198.632 251.798 199.749 250.962 200.579 250.962H203.996V250.961Z" fill="#6B6B6B"/>
<path d="M220.989 249.428V246.01C220.989 245.227 221.767 244.146 222.412 243.728C225.036 242.027 228.221 244.854 226.877 247.682C226.474 248.532 225.3 249.427 224.342 249.427H220.988L220.989 249.428Z" fill="#919191"/>
<path d="M213.258 258.69H216.611C217.632 258.69 218.859 259.674 219.23 260.607C220.356 263.448 217.219 266.043 214.643 264.363C213.977 263.928 213.258 262.852 213.258 262.043V258.69Z" fill="#AFAFAF"/>
<path d="M208.371 241.699C205.184 241.376 204.442 237.006 207.402 235.747C209.284 234.946 211.725 236.328 211.725 238.409V241.603C211.725 241.62 211.65 241.666 211.629 241.699C210.584 241.622 209.397 241.803 208.371 241.699Z" fill="#A5A5A5"/>
</g>
</g>
<g filter="url(#filter6_dddddd_194_31819)">
<path d="M390.5 250.5C390.5 235.036 403.036 222.5 418.5 222.5C433.964 222.5 446.5 235.036 446.5 250.5C446.5 265.964 433.964 278.5 418.5 278.5C403.036 278.5 390.5 265.964 390.5 250.5Z" fill="white" fill-opacity="0.72" shape-rendering="crispEdges"/>
<path d="M391 250.5C391 235.312 403.312 223 418.5 223C433.688 223 446 235.312 446 250.5C446 265.688 433.688 278 418.5 278C403.312 278 391 265.688 391 250.5Z" stroke="#242A30" stroke-opacity="0.02" shape-rendering="crispEdges"/>
<g filter="url(#filter7_d_194_31819)">
<rect x="405.5" y="237.5" width="26" height="26" rx="3.90977" fill="url(#paint1_linear_194_31819)" shape-rendering="crispEdges"/>
<rect x="405.577" y="237.577" width="25.8461" height="25.8461" rx="3.8328" stroke="#242A30" stroke-opacity="0.04" stroke-width="0.153947" shape-rendering="crispEdges"/>
<path d="M418.5 242.192C416.102 242.192 413.803 243.006 412.107 244.455C410.412 245.905 409.459 247.87 409.459 249.92C409.461 251.253 409.867 252.563 410.636 253.723C411.406 254.882 412.513 255.852 413.851 256.537C413.495 257.356 412.961 258.123 412.27 258.808C413.609 258.567 414.866 258.06 415.942 257.328C416.773 257.539 417.634 257.647 418.5 257.648C420.898 257.648 423.198 256.834 424.894 255.384C426.589 253.935 427.542 251.969 427.542 249.92C427.542 247.87 426.589 245.905 424.894 244.455C423.198 243.006 420.898 242.192 418.5 242.192Z" fill="white"/>
</g>
</g>
<g filter="url(#filter8_dddddd_194_31819)">
<path d="M262.5 172.5C262.5 143.229 286.229 119.5 315.5 119.5C344.771 119.5 368.5 143.229 368.5 172.5C368.5 201.771 344.771 225.5 315.5 225.5C286.229 225.5 262.5 201.771 262.5 172.5Z" fill="#664BF4"/>
<path d="M263 172.5C263 143.505 286.505 120 315.5 120C344.495 120 368 143.505 368 172.5C368 201.495 344.495 225 315.5 225C286.505 225 263 201.495 263 172.5Z" stroke="#242A30" stroke-opacity="0.02"/>
<g filter="url(#filter9_di_194_31819)">
<mask id="path-43-inside-1_194_31819" fill="white">
<path fill-rule="evenodd" clip-rule="evenodd" d="M303.015 147.733C302.94 147.505 303.033 147.253 303.24 147.133L316.915 139.238C317.172 139.09 317.502 139.198 317.618 139.471C320.898 147.177 321.504 155.492 319.747 163.254C319.63 163.772 320.327 164.157 320.703 163.782C322.876 161.615 325.34 159.674 328.08 158.019C328.317 157.876 328.625 157.958 328.764 158.198L336.56 171.701C336.697 171.938 336.616 172.241 336.384 172.386C327.546 177.897 323.836 188.675 326.982 198.267C327.056 198.495 326.964 198.747 326.756 198.867L313.083 206.761C312.826 206.909 312.496 206.802 312.379 206.528C309.099 198.822 308.494 190.507 310.251 182.744C310.368 182.227 309.67 181.842 309.294 182.216C307.122 184.383 304.658 186.324 301.919 187.978C301.682 188.122 301.374 188.04 301.235 187.8L293.439 174.297C293.302 174.059 293.382 173.756 293.615 173.611C302.451 168.1 306.16 157.324 303.015 147.733Z"/>
</mask>
<path fill-rule="evenodd" clip-rule="evenodd" d="M303.015 147.733C302.94 147.505 303.033 147.253 303.24 147.133L316.915 139.238C317.172 139.09 317.502 139.198 317.618 139.471C320.898 147.177 321.504 155.492 319.747 163.254C319.63 163.772 320.327 164.157 320.703 163.782C322.876 161.615 325.34 159.674 328.08 158.019C328.317 157.876 328.625 157.958 328.764 158.198L336.56 171.701C336.697 171.938 336.616 172.241 336.384 172.386C327.546 177.897 323.836 188.675 326.982 198.267C327.056 198.495 326.964 198.747 326.756 198.867L313.083 206.761C312.826 206.909 312.496 206.802 312.379 206.528C309.099 198.822 308.494 190.507 310.251 182.744C310.368 182.227 309.67 181.842 309.294 182.216C307.122 184.383 304.658 186.324 301.919 187.978C301.682 188.122 301.374 188.04 301.235 187.8L293.439 174.297C293.302 174.059 293.382 173.756 293.615 173.611C302.451 168.1 306.16 157.324 303.015 147.733Z" fill="url(#paint2_linear_194_31819)"/>
<path d="M293.615 173.611L294.144 174.46L293.615 173.611ZM301.919 187.978L301.402 187.122L301.919 187.978ZM310.251 182.744L309.275 182.524L310.251 182.744ZM309.294 182.216L310.001 182.924L309.294 182.216ZM312.379 206.528L311.459 206.92L312.379 206.528ZM326.982 198.267L327.932 197.955L326.982 198.267ZM336.384 172.386L335.855 171.537L336.384 172.386ZM328.08 158.019L328.596 158.875L328.08 158.019ZM319.747 163.254L318.771 163.034L319.747 163.254ZM320.703 163.782L319.997 163.074L320.703 163.782ZM303.015 147.733L303.965 147.421L303.015 147.733ZM317.618 139.471L316.698 139.863L317.618 139.471ZM316.415 138.372L302.74 146.267L303.74 147.999L317.415 140.104L316.415 138.372ZM320.722 163.475C322.524 155.515 321.903 146.985 318.538 139.079L316.698 139.863C319.893 147.369 320.484 155.469 318.771 163.034L320.722 163.475ZM327.563 157.163C324.754 158.86 322.226 160.851 319.997 163.074L321.409 164.49C323.526 162.379 325.927 160.488 328.596 158.875L327.563 157.163ZM337.426 171.201L329.63 157.698L327.898 158.698L335.694 172.201L337.426 171.201ZM327.932 197.955C324.927 188.793 328.472 178.498 336.913 173.235L335.855 171.537C326.619 177.297 322.744 188.556 326.031 198.579L327.932 197.955ZM313.583 207.627L327.256 199.733L326.256 198.001L312.583 205.895L313.583 207.627ZM309.275 182.524C307.473 190.484 308.094 199.015 311.459 206.92L313.299 206.136C310.104 198.63 309.514 190.53 311.226 182.965L309.275 182.524ZM302.436 188.834C305.244 187.138 307.772 185.148 310.001 182.924L308.588 181.508C306.472 183.619 304.072 185.51 301.402 187.122L302.436 188.834ZM292.573 174.797L300.369 188.3L302.101 187.3L294.305 173.797L292.573 174.797ZM302.065 148.044C305.069 157.206 301.524 167.499 293.085 172.763L294.144 174.46C303.377 168.701 307.251 157.442 303.965 147.421L302.065 148.044ZM294.305 173.797C294.446 174.041 294.354 174.329 294.144 174.46L293.085 172.763C292.41 173.184 292.158 174.078 292.573 174.797L294.305 173.797ZM301.402 187.122C301.651 186.972 301.964 187.062 302.101 187.3L300.369 188.3C300.783 189.018 301.712 189.272 302.436 188.834L301.402 187.122ZM311.226 182.965C311.406 182.168 310.935 181.543 310.441 181.27C309.946 180.997 309.167 180.931 308.588 181.508L310.001 182.924C309.798 183.126 309.555 183.066 309.474 183.021C309.393 182.976 309.212 182.803 309.275 182.524L311.226 182.965ZM312.583 205.895C312.838 205.748 313.177 205.85 313.299 206.136L311.459 206.92C311.814 207.753 312.813 208.071 313.583 207.627L312.583 205.895ZM326.031 198.579C325.963 198.37 326.043 198.124 326.256 198.001L327.256 199.733C327.885 199.369 328.15 198.62 327.932 197.955L326.031 198.579ZM335.694 172.201C335.553 171.956 335.644 171.669 335.855 171.537L336.913 173.235C337.588 172.814 337.841 171.92 337.426 171.201L335.694 172.201ZM328.596 158.875C328.348 159.026 328.035 158.936 327.898 158.698L329.63 157.698C329.215 156.98 328.286 156.726 327.563 157.163L328.596 158.875ZM318.771 163.034C318.591 163.831 319.062 164.456 319.557 164.728C320.051 165.001 320.831 165.067 321.409 164.49L319.997 163.074C320.199 162.872 320.442 162.933 320.523 162.978C320.604 163.022 320.785 163.196 320.722 163.475L318.771 163.034ZM302.74 146.267C302.111 146.63 301.847 147.379 302.065 148.044L303.965 147.421C304.034 147.63 303.954 147.876 303.74 147.999L302.74 146.267ZM317.415 140.104C317.16 140.252 316.82 140.149 316.698 139.863L318.538 139.079C318.184 138.246 317.184 137.928 316.415 138.372L317.415 140.104Z" fill="#242A30" fill-opacity="0.16" mask="url(#path-43-inside-1_194_31819)"/>
</g>
</g>
<defs>
<filter id="filter0_dddddd_194_31819" x="52.1604" y="133.217" width="68.6792" height="80.3019" filterUnits="userSpaceOnUse" color-interpolation-filters="sRGB">
<feFlood flood-opacity="0" result="BackgroundImageFix"/>
<feColorMatrix in="SourceAlpha" type="matrix" values="0 0 0 0 0 0 0 0 0 0 0 0 0 0 0 0 0 0 127 0" result="hardAlpha"/>
<feMorphology radius="6.33962" operator="erode" in="SourceAlpha" result="effect1_dropShadow_194_31819"/>
<feOffset dy="12.6792"/>
<feGaussianBlur stdDeviation="6.33962"/>
<feComposite in2="hardAlpha" operator="out"/>
<feColorMatrix type="matrix" values="0 0 0 0 0.054902 0 0 0 0 0.247059 0 0 0 0 0.494118 0 0 0 0.04 0"/>
<feBlend mode="normal" in2="BackgroundImageFix" result="effect1_dropShadow_194_31819"/>
<feColorMatrix in="SourceAlpha" type="matrix" values="0 0 0 0 0 0 0 0 0 0 0 0 0 0 0 0 0 0 127 0" result="hardAlpha"/>
<feMorphology radius="3.16981" operator="erode" in="SourceAlpha" result="effect2_dropShadow_194_31819"/>
<feOffset dy="6.33962"/>
<feGaussianBlur stdDeviation="3.16981"/>
<feComposite in2="hardAlpha" operator="out"/>
<feColorMatrix type="matrix" values="0 0 0 0 0.054902 0 0 0 0 0.247059 0 0 0 0 0.494118 0 0 0 0.04 0"/>
<feBlend mode="normal" in2="effect1_dropShadow_194_31819" result="effect2_dropShadow_194_31819"/>
<feColorMatrix in="SourceAlpha" type="matrix" values="0 0 0 0 0 0 0 0 0 0 0 0 0 0 0 0 0 0 127 0" result="hardAlpha"/>
<feMorphology radius="1.58491" operator="erode" in="SourceAlpha" result="effect3_dropShadow_194_31819"/>
<feOffset dy="3.16981"/>
<feGaussianBlur stdDeviation="1.58491"/>
<feComposite in2="hardAlpha" operator="out"/>
<feColorMatrix type="matrix" values="0 0 0 0 0.164706 0 0 0 0 0.2 0 0 0 0 0.27451 0 0 0 0.04 0"/>
<feBlend mode="normal" in2="effect2_dropShadow_194_31819" result="effect3_dropShadow_194_31819"/>
<feColorMatrix in="SourceAlpha" type="matrix" values="0 0 0 0 0 0 0 0 0 0 0 0 0 0 0 0 0 0 127 0" result="hardAlpha"/>
<feMorphology radius="0.792453" operator="erode" in="SourceAlpha" result="effect4_dropShadow_194_31819"/>
<feOffset dy="1.58491"/>
<feGaussianBlur stdDeviation="0.792453"/>
<feComposite in2="hardAlpha" operator="out"/>
<feColorMatrix type="matrix" values="0 0 0 0 0.164706 0 0 0 0 0.2 0 0 0 0 0.27451 0 0 0 0.04 0"/>
<feBlend mode="normal" in2="effect3_dropShadow_194_31819" result="effect4_dropShadow_194_31819"/>
<feColorMatrix in="SourceAlpha" type="matrix" values="0 0 0 0 0 0 0 0 0 0 0 0 0 0 0 0 0 0 127 0" result="hardAlpha"/>
<feMorphology radius="0.264151" operator="erode" in="SourceAlpha" result="effect5_dropShadow_194_31819"/>
<feOffset dy="0.528302"/>
<feGaussianBlur stdDeviation="0.264151"/>
<feComposite in2="hardAlpha" operator="out"/>
<feColorMatrix type="matrix" values="0 0 0 0 0.164706 0 0 0 0 0.2 0 0 0 0 0.270588 0 0 0 0.04 0"/>
<feBlend mode="normal" in2="effect4_dropShadow_194_31819" result="effect5_dropShadow_194_31819"/>
<feColorMatrix in="SourceAlpha" type="matrix" values="0 0 0 0 0 0 0 0 0 0 0 0 0 0 0 0 0 0 127 0" result="hardAlpha"/>
<feMorphology radius="0.528302" operator="dilate" in="SourceAlpha" result="effect6_dropShadow_194_31819"/>
<feOffset/>
<feComposite in2="hardAlpha" operator="out"/>
<feColorMatrix type="matrix" values="0 0 0 0 0.054902 0 0 0 0 0.247059 0 0 0 0 0.494118 0 0 0 0.04 0"/>
<feBlend mode="normal" in2="effect5_dropShadow_194_31819" result="effect6_dropShadow_194_31819"/>
<feBlend mode="normal" in="SourceGraphic" in2="effect6_dropShadow_194_31819" result="shape"/>
</filter>
<filter id="filter1_dddddd_194_31819" x="510.16" y="133.217" width="68.6792" height="80.3019" filterUnits="userSpaceOnUse" color-interpolation-filters="sRGB">
<feFlood flood-opacity="0" result="BackgroundImageFix"/>
<feColorMatrix in="SourceAlpha" type="matrix" values="0 0 0 0 0 0 0 0 0 0 0 0 0 0 0 0 0 0 127 0" result="hardAlpha"/>
<feMorphology radius="6.33962" operator="erode" in="SourceAlpha" result="effect1_dropShadow_194_31819"/>
<feOffset dy="12.6792"/>
<feGaussianBlur stdDeviation="6.33962"/>
<feComposite in2="hardAlpha" operator="out"/>
<feColorMatrix type="matrix" values="0 0 0 0 0.054902 0 0 0 0 0.247059 0 0 0 0 0.494118 0 0 0 0.04 0"/>
<feBlend mode="normal" in2="BackgroundImageFix" result="effect1_dropShadow_194_31819"/>
<feColorMatrix in="SourceAlpha" type="matrix" values="0 0 0 0 0 0 0 0 0 0 0 0 0 0 0 0 0 0 127 0" result="hardAlpha"/>
<feMorphology radius="3.16981" operator="erode" in="SourceAlpha" result="effect2_dropShadow_194_31819"/>
<feOffset dy="6.33962"/>
<feGaussianBlur stdDeviation="3.16981"/>
<feComposite in2="hardAlpha" operator="out"/>
<feColorMatrix type="matrix" values="0 0 0 0 0.054902 0 0 0 0 0.247059 0 0 0 0 0.494118 0 0 0 0.04 0"/>
<feBlend mode="normal" in2="effect1_dropShadow_194_31819" result="effect2_dropShadow_194_31819"/>
<feColorMatrix in="SourceAlpha" type="matrix" values="0 0 0 0 0 0 0 0 0 0 0 0 0 0 0 0 0 0 127 0" result="hardAlpha"/>
<feMorphology radius="1.58491" operator="erode" in="SourceAlpha" result="effect3_dropShadow_194_31819"/>
<feOffset dy="3.16981"/>
<feGaussianBlur stdDeviation="1.58491"/>
<feComposite in2="hardAlpha" operator="out"/>
<feColorMatrix type="matrix" values="0 0 0 0 0.164706 0 0 0 0 0.2 0 0 0 0 0.27451 0 0 0 0.04 0"/>
<feBlend mode="normal" in2="effect2_dropShadow_194_31819" result="effect3_dropShadow_194_31819"/>
<feColorMatrix in="SourceAlpha" type="matrix" values="0 0 0 0 0 0 0 0 0 0 0 0 0 0 0 0 0 0 127 0" result="hardAlpha"/>
<feMorphology radius="0.792453" operator="erode" in="SourceAlpha" result="effect4_dropShadow_194_31819"/>
<feOffset dy="1.58491"/>
<feGaussianBlur stdDeviation="0.792453"/>
<feComposite in2="hardAlpha" operator="out"/>
<feColorMatrix type="matrix" values="0 0 0 0 0.164706 0 0 0 0 0.2 0 0 0 0 0.27451 0 0 0 0.04 0"/>
<feBlend mode="normal" in2="effect3_dropShadow_194_31819" result="effect4_dropShadow_194_31819"/>
<feColorMatrix in="SourceAlpha" type="matrix" values="0 0 0 0 0 0 0 0 0 0 0 0 0 0 0 0 0 0 127 0" result="hardAlpha"/>
<feMorphology radius="0.264151" operator="erode" in="SourceAlpha" result="effect5_dropShadow_194_31819"/>
<feOffset dy="0.528302"/>
<feGaussianBlur stdDeviation="0.264151"/>
<feComposite in2="hardAlpha" operator="out"/>
<feColorMatrix type="matrix" values="0 0 0 0 0.164706 0 0 0 0 0.2 0 0 0 0 0.270588 0 0 0 0.04 0"/>
<feBlend mode="normal" in2="effect4_dropShadow_194_31819" result="effect5_dropShadow_194_31819"/>
<feColorMatrix in="SourceAlpha" type="matrix" values="0 0 0 0 0 0 0 0 0 0 0 0 0 0 0 0 0 0 127 0" result="hardAlpha"/>
<feMorphology radius="0.528302" operator="dilate" in="SourceAlpha" result="effect6_dropShadow_194_31819"/>
<feOffset/>
<feComposite in2="hardAlpha" operator="out"/>
<feColorMatrix type="matrix" values="0 0 0 0 0.054902 0 0 0 0 0.247059 0 0 0 0 0.494118 0 0 0 0.04 0"/>
<feBlend mode="normal" in2="effect5_dropShadow_194_31819" result="effect6_dropShadow_194_31819"/>
<feBlend mode="normal" in="SourceGraphic" in2="effect6_dropShadow_194_31819" result="shape"/>
</filter>
<filter id="filter2_dddddd_194_31819" x="178.16" y="48.217" width="68.6792" height="80.3019" filterUnits="userSpaceOnUse" color-interpolation-filters="sRGB">
<feFlood flood-opacity="0" result="BackgroundImageFix"/>
<feColorMatrix in="SourceAlpha" type="matrix" values="0 0 0 0 0 0 0 0 0 0 0 0 0 0 0 0 0 0 127 0" result="hardAlpha"/>
<feMorphology radius="6.33962" operator="erode" in="SourceAlpha" result="effect1_dropShadow_194_31819"/>
<feOffset dy="12.6792"/>
<feGaussianBlur stdDeviation="6.33962"/>
<feComposite in2="hardAlpha" operator="out"/>
<feColorMatrix type="matrix" values="0 0 0 0 0.054902 0 0 0 0 0.247059 0 0 0 0 0.494118 0 0 0 0.04 0"/>
<feBlend mode="normal" in2="BackgroundImageFix" result="effect1_dropShadow_194_31819"/>
<feColorMatrix in="SourceAlpha" type="matrix" values="0 0 0 0 0 0 0 0 0 0 0 0 0 0 0 0 0 0 127 0" result="hardAlpha"/>
<feMorphology radius="3.16981" operator="erode" in="SourceAlpha" result="effect2_dropShadow_194_31819"/>
<feOffset dy="6.33962"/>
<feGaussianBlur stdDeviation="3.16981"/>
<feComposite in2="hardAlpha" operator="out"/>
<feColorMatrix type="matrix" values="0 0 0 0 0.054902 0 0 0 0 0.247059 0 0 0 0 0.494118 0 0 0 0.04 0"/>
<feBlend mode="normal" in2="effect1_dropShadow_194_31819" result="effect2_dropShadow_194_31819"/>
<feColorMatrix in="SourceAlpha" type="matrix" values="0 0 0 0 0 0 0 0 0 0 0 0 0 0 0 0 0 0 127 0" result="hardAlpha"/>
<feMorphology radius="1.58491" operator="erode" in="SourceAlpha" result="effect3_dropShadow_194_31819"/>
<feOffset dy="3.16981"/>
<feGaussianBlur stdDeviation="1.58491"/>
<feComposite in2="hardAlpha" operator="out"/>
<feColorMatrix type="matrix" values="0 0 0 0 0.164706 0 0 0 0 0.2 0 0 0 0 0.27451 0 0 0 0.04 0"/>
<feBlend mode="normal" in2="effect2_dropShadow_194_31819" result="effect3_dropShadow_194_31819"/>
<feColorMatrix in="SourceAlpha" type="matrix" values="0 0 0 0 0 0 0 0 0 0 0 0 0 0 0 0 0 0 127 0" result="hardAlpha"/>
<feMorphology radius="0.792453" operator="erode" in="SourceAlpha" result="effect4_dropShadow_194_31819"/>
<feOffset dy="1.58491"/>
<feGaussianBlur stdDeviation="0.792453"/>
<feComposite in2="hardAlpha" operator="out"/>
<feColorMatrix type="matrix" values="0 0 0 0 0.164706 0 0 0 0 0.2 0 0 0 0 0.27451 0 0 0 0.04 0"/>
<feBlend mode="normal" in2="effect3_dropShadow_194_31819" result="effect4_dropShadow_194_31819"/>
<feColorMatrix in="SourceAlpha" type="matrix" values="0 0 0 0 0 0 0 0 0 0 0 0 0 0 0 0 0 0 127 0" result="hardAlpha"/>
<feMorphology radius="0.264151" operator="erode" in="SourceAlpha" result="effect5_dropShadow_194_31819"/>
<feOffset dy="0.528302"/>
<feGaussianBlur stdDeviation="0.264151"/>
<feComposite in2="hardAlpha" operator="out"/>
<feColorMatrix type="matrix" values="0 0 0 0 0.164706 0 0 0 0 0.2 0 0 0 0 0.270588 0 0 0 0.04 0"/>
<feBlend mode="normal" in2="effect4_dropShadow_194_31819" result="effect5_dropShadow_194_31819"/>
<feColorMatrix in="SourceAlpha" type="matrix" values="0 0 0 0 0 0 0 0 0 0 0 0 0 0 0 0 0 0 127 0" result="hardAlpha"/>
<feMorphology radius="0.528302" operator="dilate" in="SourceAlpha" result="effect6_dropShadow_194_31819"/>
<feOffset/>
<feComposite in2="hardAlpha" operator="out"/>
<feColorMatrix type="matrix" values="0 0 0 0 0.054902 0 0 0 0 0.247059 0 0 0 0 0.494118 0 0 0 0.04 0"/>
<feBlend mode="normal" in2="effect5_dropShadow_194_31819" result="effect6_dropShadow_194_31819"/>
<feBlend mode="normal" in="SourceGraphic" in2="effect6_dropShadow_194_31819" result="shape"/>
</filter>
<filter id="filter3_dddddd_194_31819" x="384.16" y="48.217" width="68.6792" height="80.3019" filterUnits="userSpaceOnUse" color-interpolation-filters="sRGB">
<feFlood flood-opacity="0" result="BackgroundImageFix"/>
<feColorMatrix in="SourceAlpha" type="matrix" values="0 0 0 0 0 0 0 0 0 0 0 0 0 0 0 0 0 0 127 0" result="hardAlpha"/>
<feMorphology radius="6.33962" operator="erode" in="SourceAlpha" result="effect1_dropShadow_194_31819"/>
<feOffset dy="12.6792"/>
<feGaussianBlur stdDeviation="6.33962"/>
<feComposite in2="hardAlpha" operator="out"/>
<feColorMatrix type="matrix" values="0 0 0 0 0.054902 0 0 0 0 0.247059 0 0 0 0 0.494118 0 0 0 0.04 0"/>
<feBlend mode="normal" in2="BackgroundImageFix" result="effect1_dropShadow_194_31819"/>
<feColorMatrix in="SourceAlpha" type="matrix" values="0 0 0 0 0 0 0 0 0 0 0 0 0 0 0 0 0 0 127 0" result="hardAlpha"/>
<feMorphology radius="3.16981" operator="erode" in="SourceAlpha" result="effect2_dropShadow_194_31819"/>
<feOffset dy="6.33962"/>
<feGaussianBlur stdDeviation="3.16981"/>
<feComposite in2="hardAlpha" operator="out"/>
<feColorMatrix type="matrix" values="0 0 0 0 0.054902 0 0 0 0 0.247059 0 0 0 0 0.494118 0 0 0 0.04 0"/>
<feBlend mode="normal" in2="effect1_dropShadow_194_31819" result="effect2_dropShadow_194_31819"/>
<feColorMatrix in="SourceAlpha" type="matrix" values="0 0 0 0 0 0 0 0 0 0 0 0 0 0 0 0 0 0 127 0" result="hardAlpha"/>
<feMorphology radius="1.58491" operator="erode" in="SourceAlpha" result="effect3_dropShadow_194_31819"/>
<feOffset dy="3.16981"/>
<feGaussianBlur stdDeviation="1.58491"/>
<feComposite in2="hardAlpha" operator="out"/>
<feColorMatrix type="matrix" values="0 0 0 0 0.164706 0 0 0 0 0.2 0 0 0 0 0.27451 0 0 0 0.04 0"/>
<feBlend mode="normal" in2="effect2_dropShadow_194_31819" result="effect3_dropShadow_194_31819"/>
<feColorMatrix in="SourceAlpha" type="matrix" values="0 0 0 0 0 0 0 0 0 0 0 0 0 0 0 0 0 0 127 0" result="hardAlpha"/>
<feMorphology radius="0.792453" operator="erode" in="SourceAlpha" result="effect4_dropShadow_194_31819"/>
<feOffset dy="1.58491"/>
<feGaussianBlur stdDeviation="0.792453"/>
<feComposite in2="hardAlpha" operator="out"/>
<feColorMatrix type="matrix" values="0 0 0 0 0.164706 0 0 0 0 0.2 0 0 0 0 0.27451 0 0 0 0.04 0"/>
<feBlend mode="normal" in2="effect3_dropShadow_194_31819" result="effect4_dropShadow_194_31819"/>
<feColorMatrix in="SourceAlpha" type="matrix" values="0 0 0 0 0 0 0 0 0 0 0 0 0 0 0 0 0 0 127 0" result="hardAlpha"/>
<feMorphology radius="0.264151" operator="erode" in="SourceAlpha" result="effect5_dropShadow_194_31819"/>
<feOffset dy="0.528302"/>
<feGaussianBlur stdDeviation="0.264151"/>
<feComposite in2="hardAlpha" operator="out"/>
<feColorMatrix type="matrix" values="0 0 0 0 0.164706 0 0 0 0 0.2 0 0 0 0 0.270588 0 0 0 0.04 0"/>
<feBlend mode="normal" in2="effect4_dropShadow_194_31819" result="effect5_dropShadow_194_31819"/>
<feColorMatrix in="SourceAlpha" type="matrix" values="0 0 0 0 0 0 0 0 0 0 0 0 0 0 0 0 0 0 127 0" result="hardAlpha"/>
<feMorphology radius="0.528302" operator="dilate" in="SourceAlpha" result="effect6_dropShadow_194_31819"/>
<feOffset/>
<feComposite in2="hardAlpha" operator="out"/>
<feColorMatrix type="matrix" values="0 0 0 0 0.054902 0 0 0 0 0.247059 0 0 0 0 0.494118 0 0 0 0.04 0"/>
<feBlend mode="normal" in2="effect5_dropShadow_194_31819" result="effect6_dropShadow_194_31819"/>
<feBlend mode="normal" in="SourceGraphic" in2="effect6_dropShadow_194_31819" result="shape"/>
</filter>
<filter id="filter4_d_194_31819" x="404.334" y="67.9942" width="28.3312" height="28.3312" filterUnits="userSpaceOnUse" color-interpolation-filters="sRGB">
<feFlood flood-opacity="0" result="BackgroundImageFix"/>
<feColorMatrix in="SourceAlpha" type="matrix" values="0 0 0 0 0 0 0 0 0 0 0 0 0 0 0 0 0 0 127 0" result="hardAlpha"/>
<feOffset dy="0.659774"/>
<feGaussianBlur stdDeviation="0.582801"/>
<feComposite in2="hardAlpha" operator="out"/>
<feColorMatrix type="matrix" values="0 0 0 0 0 0 0 0 0 0 0 0 0 0 0 0 0 0 0.05 0"/>
<feBlend mode="normal" in2="BackgroundImageFix" result="effect1_dropShadow_194_31819"/>
<feBlend mode="normal" in="SourceGraphic" in2="effect1_dropShadow_194_31819" result="shape"/>
</filter>
<filter id="filter5_dddddd_194_31819" x="178.16" y="217.217" width="68.6792" height="80.3019" filterUnits="userSpaceOnUse" color-interpolation-filters="sRGB">
<feFlood flood-opacity="0" result="BackgroundImageFix"/>
<feColorMatrix in="SourceAlpha" type="matrix" values="0 0 0 0 0 0 0 0 0 0 0 0 0 0 0 0 0 0 127 0" result="hardAlpha"/>
<feMorphology radius="6.33962" operator="erode" in="SourceAlpha" result="effect1_dropShadow_194_31819"/>
<feOffset dy="12.6792"/>
<feGaussianBlur stdDeviation="6.33962"/>
<feComposite in2="hardAlpha" operator="out"/>
<feColorMatrix type="matrix" values="0 0 0 0 0.054902 0 0 0 0 0.247059 0 0 0 0 0.494118 0 0 0 0.04 0"/>
<feBlend mode="normal" in2="BackgroundImageFix" result="effect1_dropShadow_194_31819"/>
<feColorMatrix in="SourceAlpha" type="matrix" values="0 0 0 0 0 0 0 0 0 0 0 0 0 0 0 0 0 0 127 0" result="hardAlpha"/>
<feMorphology radius="3.16981" operator="erode" in="SourceAlpha" result="effect2_dropShadow_194_31819"/>
<feOffset dy="6.33962"/>
<feGaussianBlur stdDeviation="3.16981"/>
<feComposite in2="hardAlpha" operator="out"/>
<feColorMatrix type="matrix" values="0 0 0 0 0.054902 0 0 0 0 0.247059 0 0 0 0 0.494118 0 0 0 0.04 0"/>
<feBlend mode="normal" in2="effect1_dropShadow_194_31819" result="effect2_dropShadow_194_31819"/>
<feColorMatrix in="SourceAlpha" type="matrix" values="0 0 0 0 0 0 0 0 0 0 0 0 0 0 0 0 0 0 127 0" result="hardAlpha"/>
<feMorphology radius="1.58491" operator="erode" in="SourceAlpha" result="effect3_dropShadow_194_31819"/>
<feOffset dy="3.16981"/>
<feGaussianBlur stdDeviation="1.58491"/>
<feComposite in2="hardAlpha" operator="out"/>
<feColorMatrix type="matrix" values="0 0 0 0 0.164706 0 0 0 0 0.2 0 0 0 0 0.27451 0 0 0 0.04 0"/>
<feBlend mode="normal" in2="effect2_dropShadow_194_31819" result="effect3_dropShadow_194_31819"/>
<feColorMatrix in="SourceAlpha" type="matrix" values="0 0 0 0 0 0 0 0 0 0 0 0 0 0 0 0 0 0 127 0" result="hardAlpha"/>
<feMorphology radius="0.792453" operator="erode" in="SourceAlpha" result="effect4_dropShadow_194_31819"/>
<feOffset dy="1.58491"/>
<feGaussianBlur stdDeviation="0.792453"/>
<feComposite in2="hardAlpha" operator="out"/>
<feColorMatrix type="matrix" values="0 0 0 0 0.164706 0 0 0 0 0.2 0 0 0 0 0.27451 0 0 0 0.04 0"/>
<feBlend mode="normal" in2="effect3_dropShadow_194_31819" result="effect4_dropShadow_194_31819"/>
<feColorMatrix in="SourceAlpha" type="matrix" values="0 0 0 0 0 0 0 0 0 0 0 0 0 0 0 0 0 0 127 0" result="hardAlpha"/>
<feMorphology radius="0.264151" operator="erode" in="SourceAlpha" result="effect5_dropShadow_194_31819"/>
<feOffset dy="0.528302"/>
<feGaussianBlur stdDeviation="0.264151"/>
<feComposite in2="hardAlpha" operator="out"/>
<feColorMatrix type="matrix" values="0 0 0 0 0.164706 0 0 0 0 0.2 0 0 0 0 0.270588 0 0 0 0.04 0"/>
<feBlend mode="normal" in2="effect4_dropShadow_194_31819" result="effect5_dropShadow_194_31819"/>
<feColorMatrix in="SourceAlpha" type="matrix" values="0 0 0 0 0 0 0 0 0 0 0 0 0 0 0 0 0 0 127 0" result="hardAlpha"/>
<feMorphology radius="0.528302" operator="dilate" in="SourceAlpha" result="effect6_dropShadow_194_31819"/>
<feOffset/>
<feComposite in2="hardAlpha" operator="out"/>
<feColorMatrix type="matrix" values="0 0 0 0 0.054902 0 0 0 0 0.247059 0 0 0 0 0.494118 0 0 0 0.04 0"/>
<feBlend mode="normal" in2="effect5_dropShadow_194_31819" result="effect6_dropShadow_194_31819"/>
<feBlend mode="normal" in="SourceGraphic" in2="effect6_dropShadow_194_31819" result="shape"/>
</filter>
<filter id="filter6_dddddd_194_31819" x="384.16" y="217.217" width="68.6792" height="80.3019" filterUnits="userSpaceOnUse" color-interpolation-filters="sRGB">
<feFlood flood-opacity="0" result="BackgroundImageFix"/>
<feColorMatrix in="SourceAlpha" type="matrix" values="0 0 0 0 0 0 0 0 0 0 0 0 0 0 0 0 0 0 127 0" result="hardAlpha"/>
<feMorphology radius="6.33962" operator="erode" in="SourceAlpha" result="effect1_dropShadow_194_31819"/>
<feOffset dy="12.6792"/>
<feGaussianBlur stdDeviation="6.33962"/>
<feComposite in2="hardAlpha" operator="out"/>
<feColorMatrix type="matrix" values="0 0 0 0 0.054902 0 0 0 0 0.247059 0 0 0 0 0.494118 0 0 0 0.04 0"/>
<feBlend mode="normal" in2="BackgroundImageFix" result="effect1_dropShadow_194_31819"/>
<feColorMatrix in="SourceAlpha" type="matrix" values="0 0 0 0 0 0 0 0 0 0 0 0 0 0 0 0 0 0 127 0" result="hardAlpha"/>
<feMorphology radius="3.16981" operator="erode" in="SourceAlpha" result="effect2_dropShadow_194_31819"/>
<feOffset dy="6.33962"/>
<feGaussianBlur stdDeviation="3.16981"/>
<feComposite in2="hardAlpha" operator="out"/>
<feColorMatrix type="matrix" values="0 0 0 0 0.054902 0 0 0 0 0.247059 0 0 0 0 0.494118 0 0 0 0.04 0"/>
<feBlend mode="normal" in2="effect1_dropShadow_194_31819" result="effect2_dropShadow_194_31819"/>
<feColorMatrix in="SourceAlpha" type="matrix" values="0 0 0 0 0 0 0 0 0 0 0 0 0 0 0 0 0 0 127 0" result="hardAlpha"/>
<feMorphology radius="1.58491" operator="erode" in="SourceAlpha" result="effect3_dropShadow_194_31819"/>
<feOffset dy="3.16981"/>
<feGaussianBlur stdDeviation="1.58491"/>
<feComposite in2="hardAlpha" operator="out"/>
<feColorMatrix type="matrix" values="0 0 0 0 0.164706 0 0 0 0 0.2 0 0 0 0 0.27451 0 0 0 0.04 0"/>
<feBlend mode="normal" in2="effect2_dropShadow_194_31819" result="effect3_dropShadow_194_31819"/>
<feColorMatrix in="SourceAlpha" type="matrix" values="0 0 0 0 0 0 0 0 0 0 0 0 0 0 0 0 0 0 127 0" result="hardAlpha"/>
<feMorphology radius="0.792453" operator="erode" in="SourceAlpha" result="effect4_dropShadow_194_31819"/>
<feOffset dy="1.58491"/>
<feGaussianBlur stdDeviation="0.792453"/>
<feComposite in2="hardAlpha" operator="out"/>
<feColorMatrix type="matrix" values="0 0 0 0 0.164706 0 0 0 0 0.2 0 0 0 0 0.27451 0 0 0 0.04 0"/>
<feBlend mode="normal" in2="effect3_dropShadow_194_31819" result="effect4_dropShadow_194_31819"/>
<feColorMatrix in="SourceAlpha" type="matrix" values="0 0 0 0 0 0 0 0 0 0 0 0 0 0 0 0 0 0 127 0" result="hardAlpha"/>
<feMorphology radius="0.264151" operator="erode" in="SourceAlpha" result="effect5_dropShadow_194_31819"/>
<feOffset dy="0.528302"/>
<feGaussianBlur stdDeviation="0.264151"/>
<feComposite in2="hardAlpha" operator="out"/>
<feColorMatrix type="matrix" values="0 0 0 0 0.164706 0 0 0 0 0.2 0 0 0 0 0.270588 0 0 0 0.04 0"/>
<feBlend mode="normal" in2="effect4_dropShadow_194_31819" result="effect5_dropShadow_194_31819"/>
<feColorMatrix in="SourceAlpha" type="matrix" values="0 0 0 0 0 0 0 0 0 0 0 0 0 0 0 0 0 0 127 0" result="hardAlpha"/>
<feMorphology radius="0.528302" operator="dilate" in="SourceAlpha" result="effect6_dropShadow_194_31819"/>
<feOffset/>
<feComposite in2="hardAlpha" operator="out"/>
<feColorMatrix type="matrix" values="0 0 0 0 0.054902 0 0 0 0 0.247059 0 0 0 0 0.494118 0 0 0 0.04 0"/>
<feBlend mode="normal" in2="effect5_dropShadow_194_31819" result="effect6_dropShadow_194_31819"/>
<feBlend mode="normal" in="SourceGraphic" in2="effect6_dropShadow_194_31819" result="shape"/>
</filter>
<filter id="filter7_d_194_31819" x="404.334" y="236.994" width="28.3312" height="28.3312" filterUnits="userSpaceOnUse" color-interpolation-filters="sRGB">
<feFlood flood-opacity="0" result="BackgroundImageFix"/>
<feColorMatrix in="SourceAlpha" type="matrix" values="0 0 0 0 0 0 0 0 0 0 0 0 0 0 0 0 0 0 127 0" result="hardAlpha"/>
<feOffset dy="0.659774"/>
<feGaussianBlur stdDeviation="0.582801"/>
<feComposite in2="hardAlpha" operator="out"/>
<feColorMatrix type="matrix" values="0 0 0 0 0 0 0 0 0 0 0 0 0 0 0 0 0 0 0.05 0"/>
<feBlend mode="normal" in2="BackgroundImageFix" result="effect1_dropShadow_194_31819"/>
<feBlend mode="normal" in="SourceGraphic" in2="effect1_dropShadow_194_31819" result="shape"/>
</filter>
<filter id="filter8_dddddd_194_31819" x="250.5" y="109.5" width="130" height="152" filterUnits="userSpaceOnUse" color-interpolation-filters="sRGB">
<feFlood flood-opacity="0" result="BackgroundImageFix"/>
<feColorMatrix in="SourceAlpha" type="matrix" values="0 0 0 0 0 0 0 0 0 0 0 0 0 0 0 0 0 0 127 0" result="hardAlpha"/>
<feMorphology radius="12" operator="erode" in="SourceAlpha" result="effect1_dropShadow_194_31819"/>
<feOffset dy="24"/>
<feGaussianBlur stdDeviation="12"/>
<feComposite in2="hardAlpha" operator="out"/>
<feColorMatrix type="matrix" values="0 0 0 0 0.054902 0 0 0 0 0.247059 0 0 0 0 0.494118 0 0 0 0.04 0"/>
<feBlend mode="normal" in2="BackgroundImageFix" result="effect1_dropShadow_194_31819"/>
<feColorMatrix in="SourceAlpha" type="matrix" values="0 0 0 0 0 0 0 0 0 0 0 0 0 0 0 0 0 0 127 0" result="hardAlpha"/>
<feMorphology radius="6" operator="erode" in="SourceAlpha" result="effect2_dropShadow_194_31819"/>
<feOffset dy="12"/>
<feGaussianBlur stdDeviation="6"/>
<feComposite in2="hardAlpha" operator="out"/>
<feColorMatrix type="matrix" values="0 0 0 0 0.054902 0 0 0 0 0.247059 0 0 0 0 0.494118 0 0 0 0.04 0"/>
<feBlend mode="normal" in2="effect1_dropShadow_194_31819" result="effect2_dropShadow_194_31819"/>
<feColorMatrix in="SourceAlpha" type="matrix" values="0 0 0 0 0 0 0 0 0 0 0 0 0 0 0 0 0 0 127 0" result="hardAlpha"/>
<feMorphology radius="3" operator="erode" in="SourceAlpha" result="effect3_dropShadow_194_31819"/>
<feOffset dy="6"/>
<feGaussianBlur stdDeviation="3"/>
<feComposite in2="hardAlpha" operator="out"/>
<feColorMatrix type="matrix" values="0 0 0 0 0.164706 0 0 0 0 0.2 0 0 0 0 0.27451 0 0 0 0.04 0"/>
<feBlend mode="normal" in2="effect2_dropShadow_194_31819" result="effect3_dropShadow_194_31819"/>
<feColorMatrix in="SourceAlpha" type="matrix" values="0 0 0 0 0 0 0 0 0 0 0 0 0 0 0 0 0 0 127 0" result="hardAlpha"/>
<feMorphology radius="1.5" operator="erode" in="SourceAlpha" result="effect4_dropShadow_194_31819"/>
<feOffset dy="3"/>
<feGaussianBlur stdDeviation="1.5"/>
<feComposite in2="hardAlpha" operator="out"/>
<feColorMatrix type="matrix" values="0 0 0 0 0.164706 0 0 0 0 0.2 0 0 0 0 0.27451 0 0 0 0.04 0"/>
<feBlend mode="normal" in2="effect3_dropShadow_194_31819" result="effect4_dropShadow_194_31819"/>
<feColorMatrix in="SourceAlpha" type="matrix" values="0 0 0 0 0 0 0 0 0 0 0 0 0 0 0 0 0 0 127 0" result="hardAlpha"/>
<feMorphology radius="0.5" operator="erode" in="SourceAlpha" result="effect5_dropShadow_194_31819"/>
<feOffset dy="1"/>
<feGaussianBlur stdDeviation="0.5"/>
<feComposite in2="hardAlpha" operator="out"/>
<feColorMatrix type="matrix" values="0 0 0 0 0.164706 0 0 0 0 0.2 0 0 0 0 0.270588 0 0 0 0.04 0"/>
<feBlend mode="normal" in2="effect4_dropShadow_194_31819" result="effect5_dropShadow_194_31819"/>
<feColorMatrix in="SourceAlpha" type="matrix" values="0 0 0 0 0 0 0 0 0 0 0 0 0 0 0 0 0 0 127 0" result="hardAlpha"/>
<feMorphology radius="1" operator="dilate" in="SourceAlpha" result="effect6_dropShadow_194_31819"/>
<feOffset/>
<feComposite in2="hardAlpha" operator="out"/>
<feColorMatrix type="matrix" values="0 0 0 0 0.054902 0 0 0 0 0.247059 0 0 0 0 0.494118 0 0 0 0.04 0"/>
<feBlend mode="normal" in2="effect5_dropShadow_194_31819" result="effect6_dropShadow_194_31819"/>
<feBlend mode="normal" in="SourceGraphic" in2="effect6_dropShadow_194_31819" result="shape"/>
</filter>
<filter id="filter9_di_194_31819" x="292.371" y="137.171" width="44.2559" height="69.6562" filterUnits="userSpaceOnUse" color-interpolation-filters="sRGB">
<feFlood flood-opacity="0" result="BackgroundImageFix"/>
<feColorMatrix in="SourceAlpha" type="matrix" values="0 0 0 0 0 0 0 0 0 0 0 0 0 0 0 0 0 0 127 0" result="hardAlpha"/>
<feOffset/>
<feComposite in2="hardAlpha" operator="out"/>
<feColorMatrix type="matrix" values="0 0 0 0 0 0 0 0 0 0 0 0 0 0 0 0 0 0 0.1 0"/>
<feBlend mode="normal" in2="BackgroundImageFix" result="effect1_dropShadow_194_31819"/>
<feBlend mode="normal" in="SourceGraphic" in2="effect1_dropShadow_194_31819" result="shape"/>
<feColorMatrix in="SourceAlpha" type="matrix" values="0 0 0 0 0 0 0 0 0 0 0 0 0 0 0 0 0 0 127 0" result="hardAlpha"/>
<feOffset dx="-1" dy="-2"/>
<feGaussianBlur stdDeviation="1.5"/>
<feComposite in2="hardAlpha" operator="arithmetic" k2="-1" k3="1"/>
<feColorMatrix type="matrix" values="0 0 0 0 0 0 0 0 0 0 0 0 0 0 0 0 0 0 0.08 0"/>
<feBlend mode="normal" in2="shape" result="effect2_innerShadow_194_31819"/>
</filter>
<linearGradient id="paint0_linear_194_31819" x1="2128.5" y1="150.5" x2="2128.5" y2="3326.77" gradientUnits="userSpaceOnUse">
<stop stop-color="#A0A0A0"/>
<stop offset="1" stop-color="#8C8C8C"/>
</linearGradient>
<linearGradient id="paint1_linear_194_31819" x1="418.706" y1="261.775" x2="418.706" y2="240.727" gradientUnits="userSpaceOnUse">
<stop stop-color="#8C8C8C"/>
<stop offset="1" stop-color="#ACACAC"/>
</linearGradient>
<linearGradient id="paint2_linear_194_31819" x1="294.374" y1="154.409" x2="342.712" y2="173.943" gradientUnits="userSpaceOnUse">
<stop stop-color="white"/>
<stop offset="0.338543" stop-color="white"/>
<stop offset="1" stop-color="white"/>
</linearGradient>
<clipPath id="clip0_194_31819">
<rect width="26.232" height="26.232" fill="white" transform="translate(73.5 153.5)"/>
</clipPath>
<clipPath id="clip1_194_31819">
<rect width="32" height="32" fill="white" transform="translate(528.5 150.5)"/>
</clipPath>
<clipPath id="clip2_194_31819">
<rect width="29.1221" height="22.0926" fill="white" transform="translate(198 70.5)"/>
</clipPath>
<clipPath id="clip3_194_31819">
<rect width="17.4311" height="16.0963" fill="white" transform="translate(409.785 73.4518)"/>
</clipPath>
<clipPath id="clip4_194_31819">
<rect width="29.4202" height="29.3933" fill="white" transform="translate(197.775 235.5)"/>
</clipPath>
</defs>
</svg>
