<svg width="21" height="21" viewBox="0 0 21 21" fill="none" xmlns="http://www.w3.org/2000/svg">
<g clip-path="url(#clip0_287_51550)">
<path d="M9.66602 6.20158H11.3327V7.86825H9.66602V6.20158ZM9.66602 9.53491H11.3327V14.5349H9.66602V9.53491ZM10.4993 2.03491C5.89935 2.03491 2.16602 5.76825 2.16602 10.3682C2.16602 14.9682 5.89935 18.7016 10.4993 18.7016C15.0993 18.7016 18.8327 14.9682 18.8327 10.3682C18.8327 5.76825 15.0993 2.03491 10.4993 2.03491ZM10.4993 17.0349C6.82435 17.0349 3.83268 14.0432 3.83268 10.3682C3.83268 6.69325 6.82435 3.70158 10.4993 3.70158C14.1743 3.70158 17.166 6.69325 17.166 10.3682C17.166 14.0432 14.1743 17.0349 10.4993 17.0349Z" fill="white" fill-opacity="0.4"/>
</g>
<defs>
<clipPath id="clip0_287_51550">
<rect width="20" height="20" fill="white" transform="translate(0.5 0.368286)"/>
</clipPath>
</defs>
</svg>
