<svg width="21" height="20" viewBox="0 0 21 20" fill="none" xmlns="http://www.w3.org/2000/svg">
<g id="info_24dp_E8EAED 1" clip-path="url(#clip0_247_84790)">
<path id="Vector" d="M10.1484 5.83335H11.8151V7.50002H10.1484V5.83335ZM10.1484 9.16669H11.8151V14.1667H10.1484V9.16669ZM10.9818 1.66669C6.38177 1.66669 2.64844 5.40002 2.64844 10C2.64844 14.6 6.38177 18.3334 10.9818 18.3334C15.5818 18.3334 19.3151 14.6 19.3151 10C19.3151 5.40002 15.5818 1.66669 10.9818 1.66669ZM10.9818 16.6667C7.30677 16.6667 4.3151 13.675 4.3151 10C4.3151 6.32502 7.30677 3.33335 10.9818 3.33335C14.6568 3.33335 17.6484 6.32502 17.6484 10C17.6484 13.675 14.6568 16.6667 10.9818 16.6667Z" fill="#242A30" fill-opacity="0.2"/>
</g>
<defs>
<clipPath id="clip0_247_84790">
<rect width="20" height="20" fill="white" transform="translate(0.982422)"/>
</clipPath>
</defs>
</svg>
