<svg xmlns="http://www.w3.org/2000/svg" width="86" height="26" viewBox="0 0 86 26" fill="none">
<path d="M24.1597 15.8948C21.1867 15.8948 18.7681 13.4976 18.7681 10.5509C18.7681 7.6044 21.1867 5.20716 24.1597 5.20716C27.1326 5.20716 29.5512 7.6044 29.5512 10.5509C29.5512 13.4976 27.1326 15.8948 24.1597 15.8948ZM24.1597 0.000154495C18.2901 0.000154495 13.5146 4.73326 13.5146 10.5509C13.5146 16.3686 18.2901 21.1016 24.1597 21.1016C30.0293 21.1016 34.8045 16.3686 34.8045 10.5509C34.8045 4.73326 30.0293 0.000154495 24.1597 0.000154495Z" fill="black"/>
<path d="M38.1953 20.5364H43.2823V0.376999H38.1953V20.5364Z" fill="black"/>
<path d="M85.8623 0.376999H69.6594V5.47098H75.203V20.5364H80.3187V5.47098H85.8623V0.376999Z" fill="black"/>
<path d="M66.2679 20.5364V0.376999H61.1293V13.2523L52.9761 0.376999H47.6157V20.5364H52.7711V7.87097L60.9222 20.5364H66.2679Z" fill="black"/>
<path d="M10.1232 0.376863H4.98559V15.547C4.98559 18.3243 2.84851 20.6101 0.137695 20.8368V26C5.6833 25.7663 10.1232 21.167 10.1232 15.547V0.376863Z" fill="black"/>
</svg>