<svg width="120" height="28" viewBox="0 0 120 28" fill="none" xmlns="http://www.w3.org/2000/svg">
<path fill-rule="evenodd" clip-rule="evenodd" d="M14.0024 1.26554C14.0024 0.5666 14.5723 0 15.2753 0H19.8102C20.5132 0 21.0831 0.5666 21.0831 1.26554V5.77401C21.0831 6.47295 20.5132 7.03955 19.8102 7.03955H15.2753C15.2331 7.03955 15.1913 7.0375 15.1501 7.0335L15.156 7.03955C14.798 7.0791 14.0819 7.36384 14.0819 8.18644L14.0759 8.1808C14.0799 8.22169 14.0819 8.26315 14.0819 8.30508V12.8136C14.0819 12.8989 14.0734 12.9823 14.0572 13.0629C14.2278 13.4646 14.6443 14 15.2753 14H19.8102C20.5132 14 21.0831 14.5666 21.0831 15.2655V19.774C21.0831 20.4729 20.5132 21.0395 19.8102 21.0395H15.2753C15.166 21.0395 15.0482 21.0395 14.9588 21.0001C14.5851 21.1061 14.0819 21.4178 14.0819 22.1073L14.0759 22.1017C14.0799 22.1426 14.0819 22.1841 14.0819 22.226V26.7345C14.0819 27.4334 13.512 28 12.809 28H1.27294C0.569916 28 0 27.4334 0 26.7345V22.226C0 21.5271 0.569916 20.9604 1.27294 20.9604H12.809C12.8225 20.9604 12.836 20.9607 12.8494 20.9611L12.8488 20.9604C13.2333 20.8814 14.0024 20.5333 14.0024 19.774V15.2655C14.0024 15.2127 14.0056 15.1605 14.012 15.1094C13.9144 14.736 13.5999 14.1485 12.9747 14.0685C12.9204 14.0755 12.8651 14.0791 12.809 14.0791H8.27413C7.5711 14.0791 7.00119 13.5125 7.00119 12.8136V8.30508C7.00119 7.60615 7.5711 7.03955 8.27413 7.03955H12.809C12.8225 7.03955 12.836 7.03976 12.8494 7.04017L12.8488 7.03955C13.2333 6.96045 14.0024 6.61243 14.0024 5.85311L14.005 5.8558C14.0033 5.82876 14.0024 5.80149 14.0024 5.77401V1.26554Z" fill="black"/>
<path d="M108.924 24.8181C108.571 24.8181 108.285 24.5332 108.285 24.1817V9.26537C108.285 8.91392 107.999 8.62901 107.646 8.62901H102.852C102.499 8.62901 102.213 8.3441 102.213 7.99264V4.07264C102.213 3.72119 102.499 3.43628 102.852 3.43628H119.361C119.714 3.43628 120 3.72119 120 4.07264V7.99264C120 8.3441 119.714 8.62901 119.361 8.62901H114.597C114.245 8.62901 113.959 8.91392 113.959 9.26537V24.1817C113.959 24.5332 113.673 24.8181 113.32 24.8181H108.924Z" fill="black"/>
<path d="M80.4519 24.8181C80.099 24.8181 79.813 24.5332 79.813 24.1817V4.07264C79.813 3.72119 80.099 3.43628 80.4519 3.43628H85.4628C85.6699 3.43628 85.8641 3.53628 85.9839 3.70455L93.0048 13.5668C93.365 14.0727 94.1648 13.8189 94.1648 13.1987V4.07264C94.1648 3.72119 94.4509 3.43628 94.8037 3.43628H99.1992C99.5521 3.43628 99.8381 3.72119 99.8381 4.07264V24.1817C99.8381 24.5332 99.5521 24.8181 99.1992 24.8181H94.495C94.2879 24.8181 94.0937 24.7181 93.9739 24.5499L86.6463 14.2595C86.2861 13.7536 85.4863 14.0075 85.4863 14.6276V24.1817C85.4863 24.5332 85.2002 24.8181 84.8474 24.8181H80.4519Z" fill="black"/>
<path d="M72.3867 24.8181C72.0338 24.8181 71.7478 24.5332 71.7478 24.1817V4.07264C71.7478 3.72119 72.0338 3.43628 72.3867 3.43628H76.7822C77.135 3.43628 77.4211 3.72119 77.4211 4.07264V24.1817C77.4211 24.5332 77.135 24.8181 76.7822 24.8181H72.3867Z" fill="black"/>
<path d="M58.3761 25.1847C56.1272 25.1847 54.1339 24.7163 52.3962 23.7796C50.6788 22.8225 49.3295 21.5192 48.3482 19.8698C47.3669 18.2 46.8762 16.296 46.8762 14.1578C46.8762 11.9992 47.3669 10.0953 48.3482 8.4458C49.3295 6.77598 50.6788 5.4727 52.3962 4.53598C54.1135 3.57889 56.0863 3.10034 58.3148 3.10034C60.5636 3.10034 62.5467 3.57889 64.264 4.53598C65.9814 5.4727 67.3307 6.77598 68.312 8.4458C69.2933 10.0953 69.784 11.9992 69.784 14.1578C69.784 16.296 69.2933 18.2 68.312 19.8698C67.3511 21.5192 66.012 22.8225 64.2947 23.7796C62.5774 24.7163 60.6045 25.1847 58.3761 25.1847ZM58.3761 19.992C59.4801 19.992 60.4512 19.7476 61.2894 19.2589C62.1276 18.7498 62.7818 18.0574 63.2521 17.1818C63.7223 16.3062 63.9574 15.2982 63.9574 14.1578C63.9574 13.0174 63.7121 12.0094 63.2214 11.1338C62.7512 10.2378 62.0867 9.54543 61.2281 9.0567C60.3899 8.54761 59.4188 8.29307 58.3148 8.29307C57.2312 8.29307 56.2601 8.54761 55.4015 9.0567C54.5633 9.54543 53.8988 10.2378 53.4082 11.1338C52.9379 12.0094 52.7028 13.0174 52.7028 14.1578C52.7028 15.2982 52.9482 16.3062 53.4388 17.1818C53.9295 18.0574 54.5939 18.7498 55.4321 19.2589C56.2908 19.7476 57.2721 19.992 58.3761 19.992Z" fill="black"/>
<path d="M36.1762 25.3068C34.8473 25.3068 33.6922 25.0828 32.7109 24.6348C31.7296 24.1868 30.922 23.6166 30.2883 22.9243C29.6545 22.2115 29.1843 21.4785 28.8776 20.725C28.6473 20.159 28.5034 19.6333 28.4461 19.1478C28.4133 18.8701 28.6008 18.6225 28.8691 18.5405L32.7566 17.3527C33.1124 17.244 33.4821 17.4617 33.5958 17.8146C33.8119 18.4854 34.0996 19.0075 34.4589 19.381C34.9291 19.8697 35.522 20.1141 36.2375 20.1141C36.7691 20.1141 37.2291 20.0021 37.6175 19.7781C38.0264 19.5541 38.3433 19.2181 38.5682 18.7701C38.7931 18.3017 38.9055 17.7214 38.9055 17.029V4.07264C38.9055 3.72119 39.1916 3.43628 39.5444 3.43628H43.9399C44.2928 3.43628 44.5788 3.72119 44.5788 4.07264V18.4341C44.5788 19.4319 44.3846 20.3585 43.9961 21.2137C43.6281 22.0486 43.0761 22.7716 42.3401 23.3825C41.6246 23.9934 40.7455 24.4719 39.7028 24.8181C38.6602 25.1439 37.4846 25.3068 36.1762 25.3068Z" fill="black"/>
</svg>
