<svg viewBox="0 0 68 18" fill="none" xmlns="http://www.w3.org/2000/svg">
<g id="JOINT">
<path id="Vector" d="M59.7742 17.1261C59.5122 17.1261 59.2997 16.908 59.2997 16.6389V5.2187C59.2997 4.94962 59.0873 4.73149 58.8252 4.73149H55.2645C55.0025 4.73149 54.79 4.51336 54.79 4.24428V1.24307C54.79 0.97399 55.0025 0.755859 55.2645 0.755859H67.5258C67.7878 0.755859 68.0003 0.973991 68.0003 1.24307V4.24428C68.0003 4.51336 67.7878 4.73149 67.5258 4.73149H63.9878C63.7258 4.73149 63.5133 4.94962 63.5133 5.2187V16.6389C63.5133 16.908 63.3009 17.1261 63.0388 17.1261H59.7742Z" fill="#242A30" fill-opacity="0.96"/>
<path id="Vector_2" d="M38.6268 17.1261C38.3648 17.1261 38.1523 16.908 38.1523 16.6389V1.24307C38.1523 0.973991 38.3648 0.755859 38.6268 0.755859H42.3485C42.5023 0.755859 42.6466 0.832418 42.7356 0.961253L47.9501 8.51193C48.2176 8.89927 48.8116 8.70495 48.8116 8.23011V1.24307C48.8116 0.973991 49.0241 0.755859 49.2861 0.755859H52.5507C52.8128 0.755859 53.0252 0.973991 53.0252 1.24307V16.6389C53.0252 16.908 52.8128 17.1261 52.5507 17.1261H49.0568C48.903 17.1261 48.7588 17.0496 48.6698 16.9208L43.2275 9.04228C42.96 8.65499 42.366 8.84933 42.366 9.32414V16.6389C42.366 16.908 42.1535 17.1261 41.8914 17.1261H38.6268Z" fill="#242A30" fill-opacity="0.96"/>
<path id="Vector_3" d="M32.6376 17.1261C32.3755 17.1261 32.1631 16.908 32.1631 16.6389V1.24307C32.1631 0.973991 32.3755 0.755859 32.6376 0.755859H35.9022C36.1642 0.755859 36.3767 0.973991 36.3767 1.24307V16.6389C36.3767 16.908 36.1642 17.1261 35.9022 17.1261H32.6376Z" fill="#242A30" fill-opacity="0.96"/>
<path id="Vector_4" d="M22.2325 17.4081C20.5622 17.4081 19.0818 17.0496 17.7911 16.3324C16.5157 15.5996 15.5135 14.6018 14.7847 13.339C14.0558 12.0605 13.6914 10.6028 13.6914 8.96576C13.6914 7.31315 14.0558 5.85541 14.7847 4.59257C15.5135 3.31413 16.5157 2.31632 17.7911 1.59915C19.0666 0.866382 20.5319 0.5 22.1869 0.5C23.8572 0.5 25.3301 0.866382 26.6055 1.59915C27.881 2.31632 28.8832 3.31413 29.612 4.59257C30.3408 5.85541 30.7053 7.31315 30.7053 8.96576C30.7053 10.6028 30.3408 12.0605 29.612 13.339C28.8983 14.6018 27.9038 15.5996 26.6283 16.3324C25.3528 17.0496 23.8876 17.4081 22.2325 17.4081ZM22.2325 13.4325C23.0524 13.4325 23.7737 13.2454 24.3962 12.8712C25.0188 12.4815 25.5047 11.9514 25.8539 11.281C26.2032 10.6106 26.3778 9.83884 26.3778 8.96576C26.3778 8.09268 26.1956 7.32094 25.8311 6.65054C25.4819 5.96455 24.9884 5.43446 24.3507 5.06029C23.7281 4.67052 23.0069 4.47563 22.1869 4.47563C21.3822 4.47563 20.6609 4.67052 20.0232 5.06029C19.4007 5.43446 18.9072 5.96455 18.5427 6.65054C18.1935 7.32094 18.0189 8.09268 18.0189 8.96576C18.0189 9.83884 18.2011 10.6106 18.5655 11.281C18.9299 11.9514 19.4234 12.4815 20.046 12.8712C20.6837 13.2454 21.4126 13.4325 22.2325 13.4325Z" fill="#242A30" fill-opacity="0.96"/>
<path id="Vector_5" d="M5.744 17.5003C4.75703 17.5003 3.89912 17.3288 3.17028 16.9858C2.44144 16.6428 1.84167 16.2063 1.37096 15.6762C0.900248 15.1305 0.551013 14.5692 0.32325 13.9924C0.152164 13.5591 0.0453346 13.1565 0.00276158 12.7848C-0.0215841 12.5722 0.117662 12.3827 0.316957 12.3199L3.20424 11.4105C3.4685 11.3273 3.74305 11.4939 3.8275 11.7642C3.98797 12.2777 4.20165 12.6775 4.46853 12.9634C4.81776 13.3376 5.2581 13.5247 5.78955 13.5247C6.18434 13.5247 6.52598 13.4389 6.81448 13.2674C7.11816 13.0959 7.35352 12.8387 7.52054 12.4957C7.68757 12.1371 7.77108 11.6927 7.77108 11.1627V1.24307C7.77108 0.973991 7.98353 0.755859 8.24559 0.755859H11.5102C11.7722 0.755859 11.9847 0.973991 11.9847 1.24307V12.2384C11.9847 13.0024 11.8404 13.7117 11.5519 14.3666C11.2786 15.0058 10.8687 15.5592 10.322 16.027C9.79058 16.4947 9.13766 16.8611 8.36326 17.1261C7.58887 17.3756 6.71578 17.5003 5.744 17.5003Z" fill="#242A30" fill-opacity="0.96"/>
</g>
</svg>
