<svg width="120" height="28" viewBox="0 0 120 28" fill="none" xmlns="http://www.w3.org/2000/svg">
<path fill-rule="evenodd" clip-rule="evenodd" d="M14.0024 1.26554C14.0024 0.5666 14.5723 0 15.2753 0H19.8102C20.5132 0 21.0831 0.5666 21.0831 1.26554V5.77401C21.0831 6.47295 20.5132 7.03955 19.8102 7.03955H15.2753C15.2331 7.03955 15.1913 7.0375 15.1501 7.0335L15.156 7.03955C14.798 7.0791 14.0819 7.36384 14.0819 8.18644L14.0759 8.1808C14.0799 8.22169 14.0819 8.26315 14.0819 8.30508V12.8136C14.0819 12.8989 14.0734 12.9823 14.0572 13.0629C14.2278 13.4646 14.6443 14 15.2753 14H19.8102C20.5132 14 21.0831 14.5666 21.0831 15.2655V19.774C21.0831 20.4729 20.5132 21.0395 19.8102 21.0395H15.2753C15.166 21.0395 15.0482 21.0395 14.9588 21.0001C14.5851 21.1061 14.0819 21.4178 14.0819 22.1073L14.0759 22.1017C14.0799 22.1426 14.0819 22.1841 14.0819 22.226V26.7345C14.0819 27.4334 13.512 28 12.809 28H1.27294C0.569916 28 0 27.4334 0 26.7345V22.226C0 21.5271 0.569916 20.9604 1.27294 20.9604H12.809C12.8225 20.9604 12.836 20.9607 12.8494 20.9611L12.8488 20.9604C13.2333 20.8814 14.0024 20.5333 14.0024 19.774V15.2655C14.0024 15.2127 14.0056 15.1605 14.012 15.1094C13.9144 14.736 13.5999 14.1485 12.9747 14.0685C12.9204 14.0755 12.8651 14.0791 12.809 14.0791H8.27413C7.5711 14.0791 7.00119 13.5125 7.00119 12.8136V8.30508C7.00119 7.60615 7.5711 7.03955 8.27413 7.03955H12.809C12.8225 7.03955 12.836 7.03976 12.8494 7.04017L12.8488 7.03955C13.2333 6.96045 14.0024 6.61243 14.0024 5.85311L14.005 5.8558C14.0033 5.82876 14.0024 5.80149 14.0024 5.77401V1.26554Z" fill="black"/>
<path d="M108.924 24.8181C108.571 24.8181 108.285 24.5332 108.285 24.1817V9.26537C108.285 8.91392 107.999 8.62901 107.646 8.62901H102.852C102.499 8.62901 102.213 8.3441 102.213 7.99264V4.07264C102.213 3.72119 102.499 3.43628 102.852 3.43628H119.361C119.714 3.43628 120 3.72119 120 4.07264V7.99264C120 8.3441 119.714 8.62901 119.361 8.62901H114.597C114.245 8.62901 113.959 8.91392 113.959 9.26537V24.1817C113.959 24.5332 113.673 24.8181 113.32 24.8181H108.924Z" fill="black"/>
<path d="M80.452 24.8181C80.0991 24.8181 79.8131 24.5332 79.8131 24.1817V4.07264C79.8131 3.72119 80.0991 3.43628 80.452 3.43628H85.4629C85.67 3.43628 85.8642 3.53628 85.984 3.70455L93.0049 13.5668C93.3651 14.0727 94.165 13.8189 94.165 13.1987V4.07264C94.165 3.72119 94.451 3.43628 94.8039 3.43628H99.1994C99.5522 3.43628 99.8382 3.72119 99.8382 4.07264V24.1817C99.8382 24.5332 99.5522 24.8181 99.1994 24.8181H94.4951C94.288 24.8181 94.0938 24.7181 93.974 24.5499L86.6464 14.2595C86.2862 13.7536 85.4864 14.0075 85.4864 14.6276V24.1817C85.4864 24.5332 85.2004 24.8181 84.8475 24.8181H80.452Z" fill="black"/>
<path d="M72.3867 24.8181C72.0338 24.8181 71.7478 24.5332 71.7478 24.1817V4.07264C71.7478 3.72119 72.0338 3.43628 72.3867 3.43628H76.7822C77.135 3.43628 77.4211 3.72119 77.4211 4.07264V24.1817C77.4211 24.5332 77.135 24.8181 76.7822 24.8181H72.3867Z" fill="black"/>
<path d="M58.3762 25.1847C56.1274 25.1847 54.134 24.7163 52.3963 23.7796C50.679 22.8225 49.3297 21.5192 48.3483 19.8698C47.367 18.2 46.8763 16.296 46.8763 14.1578C46.8763 11.9992 47.367 10.0953 48.3483 8.4458C49.3297 6.77598 50.679 5.4727 52.3963 4.53598C54.1136 3.57889 56.0865 3.10034 58.3149 3.10034C60.5638 3.10034 62.5469 3.57889 64.2642 4.53598C65.9815 5.4727 67.3308 6.77598 68.3121 8.4458C69.2935 10.0953 69.7841 11.9992 69.7841 14.1578C69.7841 16.296 69.2935 18.2 68.3121 19.8698C67.3512 21.5192 66.0122 22.8225 64.2948 23.7796C62.5775 24.7163 60.6046 25.1847 58.3762 25.1847ZM58.3762 19.992C59.4802 19.992 60.4513 19.7476 61.2895 19.2589C62.1277 18.7498 62.782 18.0574 63.2522 17.1818C63.7224 16.3062 63.9575 15.2982 63.9575 14.1578C63.9575 13.0174 63.7122 12.0094 63.2215 11.1338C62.7513 10.2378 62.0869 9.54543 61.2282 9.0567C60.39 8.54761 59.4189 8.29307 58.3149 8.29307C57.2313 8.29307 56.2602 8.54761 55.4016 9.0567C54.5634 9.54543 53.8989 10.2378 53.4083 11.1338C52.9381 12.0094 52.703 13.0174 52.703 14.1578C52.703 15.2982 52.9483 16.3062 53.4389 17.1818C53.9296 18.0574 54.594 18.7498 55.4323 19.2589C56.2909 19.7476 57.2722 19.992 58.3762 19.992Z" fill="black"/>
<path d="M36.1765 25.3068C34.8476 25.3068 33.6925 25.0828 32.7112 24.6348C31.7298 24.1868 30.9223 23.6166 30.2885 22.9243C29.6547 22.2115 29.1845 21.4785 28.8779 20.725C28.6475 20.159 28.5037 19.6333 28.4463 19.1478C28.4136 18.8701 28.601 18.6225 28.8694 18.5405L32.7569 17.3527C33.1127 17.244 33.4823 17.4617 33.596 17.8146C33.8121 18.4854 34.0998 19.0075 34.4591 19.381C34.9294 19.8697 35.5222 20.1141 36.2378 20.1141C36.7693 20.1141 37.2293 20.0021 37.6178 19.7781C38.0267 19.5541 38.3435 19.2181 38.5684 18.7701C38.7933 18.3017 38.9058 17.7214 38.9058 17.029V4.07264C38.9058 3.72119 39.1918 3.43628 39.5446 3.43628H43.9402C44.293 3.43628 44.579 3.72119 44.579 4.07264V18.4341C44.579 19.4319 44.3848 20.3585 43.9964 21.2137C43.6284 22.0486 43.0764 22.7716 42.3404 23.3825C41.6248 23.9934 40.7457 24.4719 39.7031 24.8181C38.6604 25.1439 37.4849 25.3068 36.1765 25.3068Z" fill="black"/>
</svg>
